<svg width="96" height="96" viewBox="0 0 96 96" fill="none" xmlns="http://www.w3.org/2000/svg">
<path d="M20.8125 41.8126C21.3516 42.2461 21.3516 42.2461 21.75 42.7501C21.75 42.9357 21.75 43.1213 21.75 43.3126C21.9069 43.3096 22.0637 43.3067 22.2254 43.3036C22.8138 43.294 23.4022 43.287 23.9908 43.2817C24.3681 43.2775 24.7455 43.2703 25.1228 43.2631C26.7357 43.251 27.9874 43.2494 29.2383 44.3672C29.7166 45.15 29.7904 45.7846 29.8125 46.6876C29.9633 46.7224 30.1142 46.7572 30.2695 46.793C31.7223 47.3792 33.0007 48.49 33.75 49.8751C34.2304 51.0189 34.4106 52.061 34.3945 53.2969C34.3924 53.5295 34.3924 53.5295 34.3902 53.7668C34.3308 56.0006 33.5627 58.5542 32.0479 60.2483C31.5813 60.898 31.4888 61.538 31.3594 62.3086C30.9047 64.6294 30.0034 66.6044 28.355 68.313C28.0598 68.6534 28.0598 68.6534 28.0899 69.3165C28.4178 70.2314 28.7994 70.7316 29.6602 71.201C29.8973 71.3021 30.1357 71.4003 30.375 71.4961C30.5042 71.5505 30.6335 71.6049 30.7666 71.6609C31.516 71.9736 32.2715 72.2702 33.0278 72.5655C36.5175 73.9289 39.3236 75.3927 40.9505 78.95C41.8291 81.0663 42.6128 84.2148 41.8565 86.4954C41.5542 86.9096 41.3594 87.006 40.875 87.1876C40.3614 87.2239 39.8668 87.2398 39.3533 87.2377C39.1986 87.2385 39.044 87.2394 38.8846 87.2403C38.3657 87.2426 37.8469 87.2423 37.3279 87.242C36.9562 87.2431 36.5845 87.2444 36.2127 87.2458C35.2024 87.2492 34.1921 87.25 33.1818 87.2503C32.3388 87.2506 31.4959 87.252 30.653 87.2533C28.6646 87.2564 26.6763 87.2573 24.688 87.257C22.6356 87.2568 20.5832 87.2608 18.5308 87.2667C16.7697 87.2716 15.0085 87.2736 13.2473 87.2734C12.1951 87.2733 11.1428 87.2744 10.0905 87.2783C9.10108 87.2819 8.11172 87.282 7.12229 87.2792C6.75895 87.2789 6.3956 87.2797 6.03227 87.282C5.53663 87.2849 5.04122 87.2832 4.54559 87.2803C4.40146 87.2822 4.25733 87.2841 4.10884 87.2861C3.41839 87.2772 3.03038 87.2069 2.44206 86.8328C2.00017 86.3726 1.94403 86.1953 1.9446 85.5674C1.94367 85.399 1.94275 85.2306 1.9418 85.0571C1.94683 84.8784 1.95186 84.6998 1.95705 84.5157C1.96002 84.3317 1.963 84.1477 1.96606 83.9581C2.06011 80.9139 2.92286 77.9963 5.06252 75.7501C6.91232 74.0728 9.0203 73.2198 11.3335 72.3751C11.5082 72.3107 11.6828 72.2463 11.8627 72.1799C12.2031 72.0555 12.5444 71.9338 12.8869 71.8154C14.094 71.3782 15.1557 70.8343 15.8137 69.6871C15.8507 69.5609 15.8877 69.4347 15.9258 69.3047C15.9915 69.0804 16.0573 68.8561 16.125 68.6251C16.0013 68.6251 15.8775 68.6251 15.75 68.6251C13.89 66.7316 12.6986 64.2227 12.5156 61.5704C12.3336 60.7514 11.9158 60.2689 11.4214 59.6016C9.78779 57.1479 9.18524 54.2963 9.64967 51.3926C10.1105 49.6258 11.2909 48.306 12.75 47.2501C13.0051 47.1307 13.2629 47.0171 13.5235 46.9102C14.378 46.5245 14.6489 45.896 15.0864 45.0982C16.1256 43.3944 18.7801 41.5687 20.8125 41.8126ZM19.3125 45.5626C18.0123 46.5321 18.0123 46.5321 17.3438 47.9532C17.1555 48.6875 17.1555 48.6875 16.7153 48.9837C16.4264 49.1034 16.1344 49.216 15.8401 49.3221C14.6045 49.7949 13.5268 50.5469 12.9375 51.7501C12.7881 52.4499 12.7881 52.4499 12.75 53.0626C12.8776 52.9311 13.0052 52.7996 13.1367 52.6641C14.9749 50.8364 14.9749 50.8364 15.9375 50.6251C16.9995 50.6605 17.7456 50.9299 18.6987 51.3773C20.8227 52.3006 23.1606 52.0864 25.3125 51.3751C25.6195 51.2435 25.9244 51.1071 26.2266 50.9649C26.9131 50.6493 27.3598 50.4689 28.125 50.6251C29.4046 51.211 30.2 51.873 30.9375 53.0626C30.9994 53.0626 31.0613 53.0626 31.125 53.0626C31.1045 51.9159 30.873 51.257 30.0835 50.4163C29.321 49.828 28.4597 49.5178 27.5647 49.1858C27 48.9376 27 48.9376 26.625 48.3751C26.5884 47.91 26.5884 47.91 26.6016 47.4024C26.605 47.2334 26.6083 47.0645 26.6118 46.8904C26.6162 46.7616 26.6205 46.6328 26.625 46.5001C26.4635 46.4983 26.3019 46.4965 26.1354 46.4947C25.5284 46.4864 24.9214 46.4748 24.3145 46.4611C24.0532 46.4559 23.7919 46.4519 23.5306 46.4492C21.9952 46.4327 20.6619 46.3681 19.3125 45.5626ZM16.3125 53.8126C15.266 54.9986 15.1244 56.009 15.1509 57.5494C15.1935 58.2193 15.3061 58.8434 15.4578 59.4961C15.5815 60.0914 15.6453 60.6852 15.7149 61.2891C16.033 63.5114 16.8417 65.268 18.5625 66.7501C19.9283 67.6192 21.2554 68.0573 22.875 67.8751C24.9819 67.2841 26.2857 66.195 27.375 64.3126C28.4866 62.1071 28.7288 59.3814 28.7578 56.9415C28.7617 56.7484 28.7617 56.7484 28.7657 56.5514C28.7558 55.504 28.4797 54.7882 27.8006 53.9971C27.2488 53.7578 26.9242 53.8862 26.3734 54.0872C26.2515 54.1358 26.1296 54.1844 26.0039 54.2344C22.7908 55.46 19.4863 54.9819 16.3125 53.8126ZM18.9375 70.5001C18.7851 70.7734 18.6328 71.0469 18.4805 71.3204C18.3956 71.4726 18.3108 71.6249 18.2234 71.7818C18.0816 72.0394 17.944 72.2995 17.8125 72.5626C18.7923 73.6648 19.9755 74.3377 21.4585 74.4822C23.0515 74.5264 24.3696 74.1975 25.6172 73.1719C25.7642 73.0327 25.9111 72.8935 26.0625 72.7501C25.7688 71.9424 25.3719 71.2385 24.9375 70.5001C24.8283 70.5271 24.719 70.5542 24.6065 70.5821C22.6675 71.0211 20.8643 70.9775 18.9375 70.5001ZM12.6797 75.3047C12.4653 75.3847 12.2509 75.4647 12.03 75.5472C9.2163 76.6195 7.16445 77.6397 5.85426 80.4383C5.3468 81.6818 5.25002 82.6456 5.25002 84.0001C7.23002 84.0001 9.21002 84.0001 11.25 84.0001C11.2893 82.7998 11.2893 82.7998 11.3228 81.5994C11.3321 81.3738 11.3321 81.3738 11.3416 81.1436C11.3465 80.9904 11.3514 80.8373 11.3564 80.6794C11.4559 80.1526 11.6356 79.8895 12 79.5001C12.686 79.2764 12.9938 79.2513 13.6524 79.5586C14.0625 79.8751 14.0625 79.8751 14.25 80.2501C14.3119 81.4876 14.3738 82.7251 14.4375 84.0001C19.3875 84.0001 24.3375 84.0001 29.4375 84.0001C29.4994 82.8244 29.5613 81.6488 29.625 80.4376C30.1875 79.5001 30.1875 79.5001 30.7266 79.3243C31.3495 79.3118 31.7053 79.3918 32.25 79.6876C32.4755 80.1386 32.4756 80.457 32.4968 80.9605C32.504 81.1194 32.5111 81.2784 32.5185 81.4422C32.5266 81.6443 32.5347 81.8465 32.543 82.0547C32.5836 83.0177 32.5836 83.0177 32.625 84.0001C34.6669 84.0001 36.7088 84.0001 38.8125 84.0001C38.3887 81.0331 38.005 79.2316 35.6667 77.358C34.3886 76.4338 32.957 75.9309 31.4883 75.3985C31.2339 75.3045 30.9797 75.2102 30.7255 75.1158C30.1095 74.8874 29.4925 74.6617 28.875 74.4376C28.7892 74.512 28.7035 74.5864 28.6151 74.663C26.3846 76.5884 24.3213 77.5932 21.2944 77.4969C19.0182 77.2952 16.9647 76.392 15.4204 74.6851C15.3436 74.6034 15.2667 74.5217 15.1875 74.4376C14.3933 74.4376 13.4135 75.0255 12.6797 75.3047Z" fill="white"/>
<path d="M72.9375 41.8125C73.4766 42.2461 73.4766 42.2461 73.875 42.75C73.875 42.9357 73.875 43.1213 73.875 43.3125C74.0319 43.3096 74.1887 43.3067 74.3504 43.3036C74.9388 43.294 75.5272 43.2869 76.1158 43.2816C76.4931 43.2775 76.8705 43.2703 77.2478 43.2631C80.1395 43.2413 80.1395 43.2413 81.1018 44.1474C81.8676 45.0314 81.9588 45.536 81.9375 46.6875C82.0922 46.7262 82.2469 46.7649 82.4063 46.8047C84.0615 47.455 85.3843 48.7419 86.1211 50.3555C87.0945 53.0588 86.5108 55.7937 85.3982 58.355C85.127 58.8712 84.8197 59.2872 84.457 59.7422C83.6428 60.8315 83.4844 62.0184 83.2273 63.323C82.8464 65.247 81.9476 67.0189 80.4851 68.3636C80.1795 68.6449 80.1795 68.6449 80.25 69.2579C80.5265 70.2602 80.9548 70.6237 81.8123 71.1365C82.9718 71.7512 84.1608 72.205 85.3945 72.6446C88.4534 73.7428 91.1928 75.2332 92.8125 78.1875C93.7549 80.3204 94.1426 82.4242 94.207 84.7383C94.2135 84.8738 94.22 85.0092 94.2267 85.1487C94.2321 85.8383 94.1627 86.1996 93.7467 86.7557C93.0399 87.3016 92.4938 87.319 91.6361 87.3066C91.4805 87.3081 91.3249 87.3095 91.1647 87.311C90.6437 87.3148 90.1229 87.3118 89.6019 87.3089C89.2283 87.3101 88.8547 87.3118 88.4811 87.3138C87.4665 87.3181 86.452 87.3164 85.4374 87.3135C84.3761 87.3111 83.3147 87.3133 82.2534 87.3148C80.471 87.3165 78.6886 87.3142 76.9062 87.3098C74.845 87.3047 72.7838 87.3063 70.7225 87.3115C68.9534 87.3157 67.1843 87.3163 65.4152 87.3139C64.3583 87.3124 63.3014 87.3122 62.2445 87.3153C61.2509 87.318 60.2574 87.3162 59.2638 87.3107C58.899 87.3095 58.5341 87.3099 58.1693 87.3119C57.6715 87.3145 57.1742 87.3113 56.6764 87.3066C56.5317 87.3087 56.387 87.3108 56.2379 87.3129C55.486 87.2992 55.1594 87.2153 54.5667 86.7364C54.1826 86.2437 54.069 86.0595 54.0696 85.4502C54.0686 85.3004 54.0677 85.1506 54.0667 84.9962C54.0743 84.7583 54.0743 84.7583 54.082 84.5157C54.0853 84.3502 54.0885 84.1848 54.0919 84.0143C54.2086 80.7064 55.1623 77.8249 57.5596 75.4527C59.4567 73.934 61.4928 73.1289 63.7457 72.3042C66.214 71.4675 66.214 71.4675 67.9688 69.6329C68.0738 69.1341 68.0429 68.914 67.875 68.4375C67.6142 68.1171 67.6142 68.1171 67.2891 67.8047C65.7957 66.1366 65.2002 64.298 64.7917 62.1523C64.5667 61.053 64.1679 60.2631 63.5134 59.3438C62.0505 57.2397 61.4549 54.6579 61.6875 52.125C62.0746 50.0034 63.166 48.5304 64.875 47.25C65.1761 47.0795 65.4808 46.915 65.7891 46.7579C66.5632 46.3568 66.7831 46.0016 67.125 45.1875C67.9278 43.9679 69.0667 43.2785 70.3125 42.5625C70.4534 42.4804 70.5943 42.3982 70.7395 42.3135C71.4821 41.9087 72.0764 41.6403 72.9375 41.8125ZM71.4375 45.5625C70.1378 46.5344 70.1378 46.5344 69.457 47.9532C69.2685 48.686 69.2685 48.686 68.8755 48.9969C68.4854 49.1889 68.0952 49.3491 67.6875 49.5C66.4774 49.9864 65.6738 50.5658 65.0625 51.75C64.9291 52.2697 64.8943 52.7093 64.875 53.25C64.9678 53.1224 65.0606 52.9948 65.1563 52.8633C65.9317 51.9522 66.86 50.9098 68.0625 50.625C68.9092 50.5699 69.4316 50.6849 70.1836 51.0704C72.5651 52.2033 74.9383 52.2012 77.4375 51.375C77.7445 51.2435 78.0494 51.1071 78.3516 50.9649C79.0381 50.6492 79.4848 50.4689 80.25 50.625C81.3206 51.139 82.2011 51.6902 82.875 52.6875C83.0598 52.8777 83.2469 53.0658 83.4375 53.25C83.28 51.8611 82.8107 50.9797 81.75 50.0625C80.8801 49.4877 79.9422 49.1887 78.9375 48.9375C78.9057 48.672 78.8746 48.4063 78.8438 48.1407C78.8264 47.9928 78.809 47.8448 78.791 47.6924C78.75 47.25 78.75 47.25 78.75 46.5C78.5885 46.4983 78.4269 46.4965 78.2604 46.4947C77.6534 46.4864 77.0464 46.4748 76.4395 46.4611C76.1782 46.4559 75.9169 46.4519 75.6556 46.4492C74.1202 46.4327 72.7869 46.3681 71.4375 45.5625ZM78.8577 53.9561C78.6134 54.0452 78.3705 54.1382 78.1289 54.2344C75.2258 55.3418 72.0562 55.1615 69.1875 54C68.6796 53.9685 68.6796 53.9685 68.25 54C68.1301 54.2011 68.0102 54.4022 67.8867 54.6094C67.8193 54.7225 67.7519 54.8357 67.6824 54.9522C67.004 56.2925 67.2628 57.8737 67.582 59.2815C67.7098 59.9246 67.7782 60.5674 67.8516 61.2188C68.156 63.5285 69.0136 65.3339 70.8516 66.8204C72.1147 67.6965 73.4707 68.0636 75 67.875C76.5542 67.5756 77.7905 66.7601 78.7529 65.5086C79.9389 63.7123 80.3669 62.0371 80.6719 59.9297C80.7241 59.6013 80.7241 59.6013 80.7774 59.2662C81.0268 57.5808 81.2309 55.8646 80.25 54.375C79.747 53.8256 79.6015 53.7899 78.8577 53.9561ZM71.0625 70.5C70.9405 70.7339 70.8196 70.9684 70.6992 71.2032C70.5981 71.3989 70.5981 71.3989 70.4949 71.5987C70.3208 71.9817 70.2128 72.3396 70.125 72.75C71.3184 73.9357 72.4582 74.4458 74.1445 74.5196C75.7618 74.4697 77.0273 73.8492 78.1875 72.75C77.8895 71.9934 77.5721 71.2467 77.25 70.5C77.1272 70.5271 77.0044 70.5542 76.8779 70.5821C74.8774 70.989 73.0466 70.9917 71.0625 70.5ZM64.8164 75.293C64.6036 75.3714 64.3908 75.4499 64.1715 75.5307C61.6301 76.4948 59.2772 77.622 58.0957 80.1988C57.6246 81.4682 57.375 82.645 57.375 84C59.355 84 61.335 84 63.375 84C63.4143 82.7998 63.4143 82.7998 63.4478 81.5993C63.4571 81.3738 63.4571 81.3738 63.4666 81.1436C63.4715 80.9904 63.4764 80.8372 63.4814 80.6794C63.5809 80.1526 63.7606 79.8895 64.125 79.5C64.8171 79.2744 65.118 79.248 65.7774 79.5704C66.1875 79.875 66.1875 79.875 66.375 80.0625C66.4369 81.3619 66.4988 82.6613 66.5625 84C71.5744 84 76.5863 84 81.75 84C81.8119 82.7007 81.8738 81.4013 81.9375 80.0625C82.5181 79.482 82.6555 79.3684 83.4375 79.3125C83.9414 79.4297 83.9414 79.4297 84.375 79.6875C84.8433 80.5364 84.8313 81.4259 84.8672 82.3711C84.8904 82.9087 84.9136 83.4462 84.9375 84C86.9175 84 88.8975 84 90.9375 84C90.6869 81.4935 90.1804 79.4339 88.3176 77.6448C86.9154 76.5492 85.1878 75.9837 83.5357 75.3704C83.2053 75.2427 82.8782 75.1061 82.5542 74.963C82.3894 74.8909 82.2245 74.8187 82.0547 74.7444C81.9063 74.6769 81.7579 74.6094 81.605 74.5399C81.1857 74.3968 81.1857 74.3968 80.7832 74.5795C80.405 74.8161 80.405 74.8161 80.0391 75.2344C78.3694 76.8315 76.4331 77.4525 74.1563 77.5079C71.4856 77.4456 69.5683 76.5433 67.6406 74.7327C66.9165 74.0813 65.6218 74.9884 64.8164 75.293Z" fill="white"/>
<path d="M36.2865 16.8473C36.5021 16.846 36.7176 16.8447 36.9397 16.8433C37.1764 16.8428 37.4131 16.8423 37.657 16.8418C37.9086 16.8406 38.1603 16.8393 38.4119 16.838C39.2383 16.8341 40.0647 16.8321 40.8911 16.8303C41.1757 16.8295 41.4602 16.8287 41.7448 16.8279C43.0814 16.8244 44.418 16.8217 45.7546 16.8201C47.2975 16.8183 48.8404 16.8134 50.3833 16.8058C51.576 16.8001 52.7687 16.7974 53.9614 16.7967C54.6737 16.7963 55.386 16.7946 56.0983 16.7899C56.7684 16.7855 57.4385 16.7848 58.1086 16.7867C58.4714 16.7868 58.8342 16.7832 59.1969 16.7795C59.4136 16.7808 59.6302 16.7821 59.8533 16.7835C60.0412 16.783 60.229 16.7826 60.4225 16.7821C61.0895 16.9023 61.4011 17.1471 61.875 17.6249C62.1138 18.1937 62.0869 18.7708 62.0888 19.3829C62.0899 19.5874 62.091 19.7919 62.0921 20.0026C62.0924 20.3378 62.0924 20.3378 62.0927 20.6798C62.0936 20.9158 62.0946 21.1519 62.0955 21.3951C62.098 22.042 62.0992 22.689 62.1 23.336C62.1006 23.7404 62.1014 24.1448 62.1022 24.5492C62.1048 25.8153 62.1066 27.0813 62.1073 28.3473C62.1081 29.8076 62.1114 31.2678 62.1169 32.728C62.1209 33.8576 62.1228 34.9873 62.123 36.1169C62.1232 36.7912 62.1243 37.4655 62.1277 38.1398C62.1314 38.8921 62.1306 39.6443 62.1293 40.3966C62.1311 40.6193 62.1328 40.842 62.1346 41.0714C62.1248 42.9868 62.1248 42.9868 61.5 43.8749C61.0095 44.1202 60.6463 44.0883 60.0968 44.0913C59.7691 44.0937 59.7691 44.0937 59.4348 44.0962C59.0735 44.0974 59.0735 44.0974 58.7048 44.0986C58.4495 44.1001 58.1942 44.1016 57.9389 44.1033C57.0993 44.1082 56.2598 44.111 55.4202 44.1137C55.1313 44.1147 54.8423 44.1157 54.5534 44.1167C53.3517 44.1208 52.1501 44.1243 50.9484 44.1264C49.2256 44.1295 47.5029 44.1357 45.7801 44.1464C44.5691 44.1536 43.3581 44.1573 42.1471 44.1583C41.4237 44.159 40.7003 44.1612 39.9768 44.1673C39.2961 44.1729 38.6155 44.1741 37.9348 44.1719C37.5661 44.1718 37.1975 44.1764 36.8289 44.1812C35.9176 44.1747 35.2586 44.1655 34.4451 43.738C33.9315 42.7545 33.9979 41.7999 34.0096 40.7068C34.0086 40.461 34.0076 40.2152 34.0065 39.9619C34.0038 39.289 34.007 38.6162 34.0114 37.9433C34.0152 37.2387 34.0141 36.5341 34.0136 35.8295C34.0137 34.6466 34.0174 33.4637 34.0234 32.2807C34.0303 30.9133 34.0319 29.5459 34.0306 28.1784C34.0294 26.8624 34.0315 25.5464 34.0351 24.2304C34.0367 23.6706 34.0372 23.1107 34.0369 22.5509C34.0367 21.7693 34.0412 20.9878 34.0463 20.2063C34.0457 19.9738 34.0452 19.7413 34.0446 19.5017C34.0467 19.289 34.0489 19.0764 34.051 18.8573C34.0517 18.6725 34.0524 18.4878 34.0532 18.2974C34.1375 17.7279 34.289 17.4732 34.6875 17.0624C35.2701 16.8682 35.6755 16.85 36.2865 16.8473ZM37.3125 20.0624C37.3125 26.9306 37.3125 33.7987 37.3125 40.8749C44.4281 40.8749 51.5437 40.8749 58.875 40.8749C58.875 34.0068 58.875 27.1387 58.875 20.0624C57.0187 20.0624 55.1625 20.0624 53.25 20.0624C53.2452 20.5681 53.2403 21.0737 53.2353 21.5947C53.2281 22.0849 53.2197 22.5751 53.2111 23.0654C53.2058 23.4058 53.2018 23.7463 53.1992 24.0867C53.1952 24.5765 53.1864 25.0659 53.1768 25.5556C53.1765 25.7076 53.1763 25.8596 53.1761 26.0161C53.1598 26.6418 53.1062 27.1093 52.7986 27.6594C52.0302 28.0989 51.2894 28.0333 50.4199 28.0173C50.1433 28.0163 50.1433 28.0163 49.861 28.0154C49.4714 28.0135 49.0818 28.0097 48.6922 28.0043C48.096 27.9961 47.4999 27.9928 46.9036 27.9905C46.5249 27.988 46.1462 27.9852 45.7676 27.9821C45.5892 27.9807 45.4109 27.9793 45.2272 27.9779C45.0607 27.9755 44.8943 27.9731 44.7228 27.9706C44.5038 27.9679 44.5038 27.9679 44.2805 27.965C43.8749 27.9374 43.5152 27.861 43.125 27.7499C42.9097 26.9725 42.8952 26.2112 42.8782 25.4091C42.8743 25.2562 42.8704 25.1033 42.8664 24.9457C42.8541 24.4586 42.8431 23.9715 42.832 23.4843C42.8239 23.1535 42.8157 22.8227 42.8075 22.4919C42.7873 21.6821 42.7687 20.8723 42.75 20.0624C40.9556 20.0624 39.1612 20.0624 37.3125 20.0624ZM45.9375 20.0624C45.9375 21.6712 45.9375 23.2799 45.9375 24.9374C47.2987 24.9374 48.66 24.9374 50.0625 24.9374C50.0625 23.3287 50.0625 21.7199 50.0625 20.0624C48.7012 20.0624 47.34 20.0624 45.9375 20.0624Z" fill="white"/>
<path d="M11.1645 9.10577C11.3613 9.10388 11.5581 9.10199 11.7609 9.10005C12.4102 9.09471 13.0594 9.0936 13.7087 9.093C14.1613 9.09119 14.6139 9.0893 15.0664 9.08733C16.0148 9.08396 16.9631 9.08291 17.9115 9.08325C19.1246 9.08331 20.3375 9.07563 21.5505 9.06594C22.4853 9.05967 23.42 9.05854 24.3547 9.05884C24.8018 9.05818 25.2489 9.0557 25.696 9.05134C26.3225 9.04581 26.9486 9.04746 27.5752 9.05084C27.8501 9.0461 27.8501 9.0461 28.1305 9.04126C29.4478 9.05926 30.3287 9.42639 31.3125 10.3125C32.1401 11.3941 32.2792 12.4307 32.2862 13.7534C32.2885 13.9932 32.2885 13.9932 32.2908 14.2378C32.2955 14.7675 32.2986 15.2972 32.3013 15.8269C32.3023 16.0081 32.3033 16.1894 32.3043 16.3761C32.3093 17.3363 32.3129 18.2964 32.3156 19.2566C32.3181 20.0494 32.3233 20.842 32.331 21.6348C32.3403 22.5934 32.3449 23.552 32.3462 24.5107C32.3475 24.875 32.3503 25.2392 32.3548 25.6035C32.3992 29.4032 32.3992 29.4032 31.3125 30.75C30.2823 31.7134 29.3546 31.903 27.988 31.8933C27.8473 31.893 27.7066 31.8928 27.5617 31.8925C27.1127 31.8914 26.6638 31.8891 26.2148 31.8867C25.9103 31.8858 25.6057 31.8849 25.3011 31.8841C24.5549 31.8821 23.8087 31.8788 23.0625 31.875C23.052 32.1014 23.0415 32.3279 23.0307 32.5612C22.9606 34.0419 22.8709 35.5209 22.7226 36.9961C22.7118 37.1269 22.701 37.2578 22.6898 37.3926C22.5945 38.2614 22.3702 38.7593 21.75 39.375C21.2226 39.5742 21.2226 39.5742 20.625 39.5625C19.6574 39.0706 18.8452 38.4712 18.0117 37.7812C16.9031 36.8783 15.7754 36.0086 14.6242 35.1607C13.9835 34.6859 13.3593 34.2006 12.7515 33.6841C11.1878 32.3177 11.1878 32.3177 9.22778 31.76C8.43733 31.622 7.82234 31.167 7.31249 30.5625C6.68225 29.4287 6.45265 28.4594 6.46842 27.1724C6.46741 27.0115 6.4664 26.8506 6.46535 26.6848C6.46303 26.1584 6.46609 25.6323 6.46947 25.1059C6.46945 24.7374 6.46917 24.3688 6.46865 24.0002C6.46839 23.2301 6.47073 22.4601 6.47501 21.6901C6.48034 20.7051 6.47982 19.7202 6.47743 18.7352C6.47613 17.975 6.47759 17.2148 6.47992 16.4546C6.48076 16.0914 6.48083 15.7283 6.48009 15.3651C6.47955 14.8572 6.48265 14.3495 6.48673 13.8416C6.48589 13.6929 6.48504 13.5442 6.48417 13.391C6.50408 11.893 6.99892 10.8383 8.06249 9.74998C9.07613 9.08553 9.99349 9.10415 11.1645 9.10577ZM10.0239 12.3804C9.59695 12.9565 9.64874 13.5478 9.6589 14.2365C9.65819 14.3877 9.65747 14.539 9.65674 14.6949C9.65535 15.1953 9.65936 15.6956 9.66357 16.196C9.66401 16.5432 9.66418 16.8905 9.66409 17.2377C9.66467 17.9654 9.66778 18.6931 9.67281 19.4208C9.67919 20.3551 9.68062 21.2893 9.68033 22.2235C9.68044 22.9404 9.68249 23.6573 9.68521 24.3742C9.6864 24.7188 9.68714 25.0633 9.68742 25.4079C9.68823 25.8887 9.69151 26.3695 9.69552 26.8502C9.69535 26.9935 9.69518 27.1368 9.695 27.2845C9.67855 28.0718 9.67855 28.0718 10.125 28.6875C10.4595 28.7572 10.7958 28.8184 11.1328 28.875C12.4836 29.1974 13.3043 29.9463 14.3066 30.85C14.8948 31.3579 15.5232 31.8126 16.1484 32.2734C17.1775 33.0359 18.1871 33.8129 19.177 34.626C19.4568 34.8941 19.4568 34.8941 19.6875 34.875C19.7016 34.7255 19.7157 34.5761 19.7302 34.4222C19.7955 33.7447 19.8645 33.0677 19.9336 32.3906C19.9557 32.1554 19.9778 31.9203 20.0006 31.678C20.0242 31.452 20.0477 31.226 20.072 30.9931C20.0926 30.785 20.1133 30.5768 20.1345 30.3623C20.2585 29.7718 20.3849 29.4846 20.8125 29.0625C21.5878 28.8153 22.375 28.8393 23.1811 28.8288C23.5017 28.8227 23.8223 28.8164 24.1428 28.8102C24.6473 28.8012 25.1518 28.7929 25.6563 28.7856C26.1438 28.7782 26.6312 28.7685 27.1186 28.7585C27.2702 28.7569 27.4218 28.7554 27.5779 28.7537C28.4083 28.7679 28.4083 28.7679 29.0625 28.3125C29.1017 27.8187 29.1176 27.3444 29.117 26.8502C29.1182 26.6993 29.1195 26.5484 29.1208 26.3928C29.1244 25.8923 29.1251 25.3919 29.1255 24.8913C29.1267 24.5443 29.1279 24.1973 29.1293 23.8502C29.1315 23.1222 29.1322 22.3941 29.132 21.6661C29.1319 20.732 29.1371 19.7981 29.1435 18.864C29.1477 18.1471 29.1484 17.4303 29.1483 16.7133C29.1487 16.3689 29.1504 16.0245 29.1533 15.6801C29.1569 15.1988 29.1559 14.7178 29.1536 14.2365C29.1557 14.0936 29.1578 13.9507 29.16 13.8034C29.1531 13.2331 29.1336 12.8459 28.7886 12.3804C28.0634 12.0866 27.3797 12.1093 26.6041 12.1147C26.3452 12.1132 26.3452 12.1132 26.081 12.1117C25.5103 12.1092 24.9398 12.1109 24.3691 12.1128C23.9726 12.1124 23.5761 12.1118 23.1797 12.1111C22.3487 12.1103 21.5178 12.1115 20.6868 12.1141C19.6212 12.1174 18.5557 12.1155 17.4901 12.1121C16.6714 12.1101 15.8527 12.1108 15.0339 12.1122C14.641 12.1126 14.2481 12.1121 13.8552 12.1108C13.3062 12.1094 12.7573 12.1116 12.2084 12.1147C12.0457 12.1136 11.883 12.1124 11.7154 12.1112C11.0895 12.1179 10.6072 12.1441 10.0239 12.3804Z" fill="white"/>
<path d="M67.3914 9.16121C67.6457 9.15961 67.6457 9.15961 67.9051 9.15797C68.0907 9.15776 68.2762 9.15755 68.4674 9.15734C68.6632 9.1564 68.859 9.15547 69.0607 9.15451C69.7097 9.15177 70.3586 9.1505 71.0076 9.14946C71.4581 9.14838 71.9086 9.1473 72.3591 9.14622C73.3044 9.14425 74.2496 9.14316 75.1949 9.1425C76.4061 9.14148 77.6173 9.13697 78.8285 9.13163C79.7593 9.12814 80.6901 9.12717 81.621 9.12688C82.0675 9.12631 82.514 9.1248 82.9606 9.12234C83.5853 9.11915 84.21 9.1195 84.8348 9.12071C85.0193 9.11899 85.2037 9.11726 85.3937 9.11548C86.5778 9.1227 87.3893 9.28759 88.3213 10.0738C88.4267 10.1912 88.5321 10.3087 88.6406 10.4297C88.748 10.5443 88.8553 10.6589 88.9658 10.7769C89.941 12.4004 89.6797 14.5376 89.6748 16.3653C89.6751 16.6993 89.6754 17.0334 89.6759 17.3674C89.6765 18.0653 89.6757 18.7631 89.6739 19.461C89.6718 20.3517 89.673 21.2425 89.6752 22.1333C89.6766 22.8224 89.6762 23.5115 89.6752 24.2006C89.675 24.5289 89.6753 24.8572 89.6761 25.1855C89.6852 29.5473 89.6852 29.5473 88.2862 31.0013C87.6359 31.5819 87.0905 31.8593 86.2185 31.9087C85.2471 32.1167 84.6952 32.598 83.9414 33.2227C83.6422 33.463 83.3428 33.7032 83.0435 33.9434C82.8914 34.0669 82.7393 34.1904 82.5826 34.3177C81.863 34.8994 81.1332 35.4677 80.4024 36.0352C80.1943 36.1969 80.1943 36.1969 79.982 36.3618C79.0562 37.0791 78.1285 37.7937 77.1914 38.4961C77.0781 38.5828 76.9649 38.6695 76.8482 38.7589C76.2439 39.2066 75.7602 39.517 75 39.5625C73.9818 39.2032 73.9818 39.2032 73.6645 38.5996C73.4633 37.9427 73.3945 37.2987 73.3404 36.6175C73.3284 36.4815 73.3164 36.3455 73.3041 36.2053C73.2665 35.7737 73.2309 35.342 73.1953 34.9102C73.1701 34.6164 73.1447 34.3225 73.1192 34.0287C73.0571 33.311 72.9968 32.5931 72.9375 31.875C72.7523 31.88 72.567 31.8849 72.3761 31.8899C71.6829 31.907 70.9896 31.9177 70.2962 31.9265C69.9972 31.9312 69.6983 31.9376 69.3994 31.9458C66.4006 32.0255 66.4006 32.0255 65.3188 31.1875C64.9358 30.814 64.6095 30.4456 64.3125 30C64.2455 29.9011 64.1786 29.8023 64.1096 29.7004C63.8461 29.0107 63.8806 28.3165 63.8801 27.588C63.8785 27.4202 63.877 27.2524 63.8753 27.0796C63.8708 26.5247 63.8692 25.9699 63.8679 25.4151C63.8663 25.0288 63.8645 24.6425 63.8628 24.2562C63.8597 23.4461 63.8583 22.6359 63.8577 21.8258C63.8567 20.7896 63.8497 19.7537 63.8411 18.7176C63.8355 17.9194 63.8342 17.1213 63.834 16.3231C63.8332 15.9412 63.8309 15.5594 63.8269 15.1776C63.8219 14.6422 63.8228 14.1071 63.8251 13.5716C63.8224 13.4152 63.8196 13.2587 63.8167 13.0975C63.8325 11.8253 64.27 10.9238 65.1654 10.0192C65.89 9.38809 66.4463 9.16479 67.3914 9.16121ZM67.125 12.5625C67.1207 14.6373 67.1173 16.7121 67.1153 18.7868C67.1143 19.7501 67.113 20.7134 67.1109 21.6767C67.1088 22.6055 67.1077 23.5343 67.1072 24.4631C67.1069 24.8183 67.1062 25.1735 67.1052 25.5287C67.1038 26.0244 67.1036 26.52 67.1037 27.0157C67.1031 27.1641 67.1024 27.3125 67.1017 27.4653C67.0409 28.1316 67.0409 28.1316 67.3125 28.6875C67.842 28.713 68.3676 28.727 68.8975 28.7337C69.2259 28.7399 69.5542 28.7461 69.8826 28.7524C70.4018 28.7612 70.9211 28.7696 71.4404 28.7769C71.9404 28.7844 72.4404 28.7941 72.9405 28.804C73.095 28.8056 73.2495 28.8072 73.4087 28.8088C74.2003 28.8257 74.8508 28.8614 75.5625 29.25C76.0787 30.0769 76.058 31.1243 76.1367 32.0743C76.1658 32.4085 76.1953 32.7428 76.2254 33.077C76.2377 33.2242 76.25 33.3714 76.2628 33.523C76.3109 33.9242 76.393 34.2983 76.5 34.6875C77.1782 34.3854 77.7206 33.9715 78.3047 33.5157C78.4078 33.4355 78.5109 33.3554 78.6171 33.2728C78.8465 33.0943 79.0757 32.9156 79.3046 32.7366C79.7241 32.409 80.1445 32.0826 80.565 31.7564C81.1497 31.3026 81.7343 30.8486 82.3184 30.3941C82.4483 30.2936 82.5783 30.1931 82.7122 30.0895C83.0034 29.8593 83.2852 29.6172 83.5642 29.3724C84.0778 29.0073 84.4449 28.9371 85.0664 28.8633C85.5969 28.8103 85.5969 28.8103 86.0625 28.6875C86.5232 27.9965 86.4904 27.4751 86.486 26.6759C86.4867 26.5286 86.4874 26.3813 86.488 26.2296C86.4897 25.7422 86.4886 25.255 86.4873 24.7676C86.4876 24.4293 86.4879 24.0909 86.4884 23.7526C86.489 23.0433 86.4882 22.334 86.4864 21.6247C86.4843 20.7149 86.4855 19.8051 86.4878 18.8952C86.4891 18.1965 86.4887 17.4978 86.4877 16.799C86.4875 16.4635 86.4878 16.128 86.4886 15.7925C86.4896 15.3239 86.4881 14.8553 86.486 14.3866C86.4868 14.2475 86.4876 14.1084 86.4883 13.9651C86.4826 13.2689 86.4592 12.9701 86.0625 12.375C85.3185 12.127 84.6059 12.1599 83.8301 12.1603C83.6594 12.1597 83.4886 12.1591 83.3126 12.1584C82.7471 12.1566 82.1815 12.1563 81.616 12.1561C81.2234 12.1555 80.8309 12.1548 80.4383 12.1542C79.6151 12.153 78.7918 12.1527 77.9686 12.1528C76.9129 12.1528 75.8572 12.1503 74.8015 12.147C73.9907 12.145 73.1798 12.1446 72.369 12.1447C71.9797 12.1444 71.5905 12.1436 71.2012 12.1422C70.6572 12.1403 70.1132 12.1409 69.5692 12.142C69.4079 12.1409 69.2467 12.1399 69.0806 12.1388C68.9321 12.1396 68.7836 12.1404 68.6305 12.1412C68.502 12.1411 68.3734 12.141 68.241 12.1409C67.8084 12.196 67.5028 12.3498 67.125 12.5625Z" fill="white"/>
<path d="M71.8369 18.9073C72.0785 18.9055 72.32 18.9037 72.5689 18.9019C72.8339 18.901 73.0988 18.9002 73.3638 18.8995C73.6347 18.8984 73.9056 18.8973 74.1765 18.8962C74.7449 18.8943 75.3133 18.8932 75.8816 18.8925C76.6097 18.8915 77.3376 18.887 78.0657 18.8816C78.6254 18.8782 79.1852 18.8772 79.745 18.8769C80.0133 18.8763 80.2817 18.8748 80.5501 18.8724C80.9257 18.8692 81.3014 18.8699 81.677 18.8707C81.8907 18.87 82.1044 18.8694 82.3246 18.8687C82.9335 18.9449 83.189 19.0765 83.625 19.5001C83.8554 20.1449 83.8732 20.7904 83.6836 21.4454C83.3752 21.8272 83.1452 21.9438 82.6875 22.1251C82.1468 22.1727 82.1468 22.1727 81.5127 22.1736C81.2749 22.1748 81.0371 22.1759 80.7922 22.1772C80.5333 22.1765 80.2745 22.1757 80.0156 22.1749C79.7494 22.1751 79.4833 22.1755 79.2171 22.1759C78.6598 22.1765 78.1025 22.1757 77.5452 22.1739C76.8314 22.1718 76.1178 22.173 75.404 22.1753C74.8546 22.1766 74.3051 22.1762 73.7556 22.1752C73.4925 22.175 73.2294 22.1753 72.9662 22.1762C72.5982 22.1771 72.2303 22.1754 71.8623 22.1736C71.653 22.1733 71.4438 22.173 71.2282 22.1727C70.6921 22.1255 70.386 22.0391 69.9375 21.7501C69.5443 21.2446 69.5634 20.9826 69.5976 20.3321C69.7453 19.7073 69.8056 19.49 70.3125 19.1251C70.8317 18.8655 71.2559 18.9108 71.8369 18.9073Z" fill="white"/>
<path d="M71.8795 23.3861C72.1211 23.3843 72.3626 23.3825 72.6114 23.3806C72.8744 23.3807 73.1374 23.3809 73.4004 23.3812C73.6708 23.3804 73.9412 23.3796 74.2115 23.3787C74.7777 23.3773 75.3438 23.3774 75.91 23.3784C76.635 23.3795 77.36 23.3763 78.0851 23.3719C78.6433 23.3692 79.2014 23.369 79.7596 23.3696C80.0269 23.3695 80.2942 23.3685 80.5616 23.3666C80.9354 23.3643 81.3092 23.3659 81.683 23.3677C81.8956 23.3676 82.1082 23.3675 82.3272 23.3674C82.9337 23.4451 83.1901 23.5782 83.625 24.0001C83.8554 24.6449 83.8732 25.2904 83.6836 25.9454C83.3753 26.327 83.1449 26.4435 82.6875 26.6251C82.1481 26.6752 82.1481 26.6752 81.5157 26.6795C81.2785 26.6819 81.0414 26.6843 80.797 26.6868C80.5387 26.6874 80.2805 26.6878 80.0222 26.688C79.7565 26.6892 79.4908 26.6905 79.2251 26.6918C78.6685 26.6941 78.112 26.6948 77.5555 26.6945C76.8434 26.6945 76.1315 26.6996 75.4195 26.7061C74.8708 26.7103 74.3221 26.711 73.7734 26.7108C73.511 26.7113 73.2485 26.7129 72.9861 26.7158C72.6186 26.7195 72.2511 26.7179 71.8836 26.7162C71.5704 26.717 71.5704 26.717 71.2508 26.7178C70.5533 26.603 70.243 26.3745 69.75 25.8751C69.5756 25.2241 69.4983 24.7787 69.6914 24.129C70.2705 23.3845 70.9874 23.3897 71.8795 23.3861Z" fill="white"/>
<path d="M71.8167 14.4073C72.0539 14.4055 72.2911 14.4037 72.5355 14.4019C72.7957 14.401 73.0559 14.4002 73.3162 14.3995C73.5824 14.3984 73.8487 14.3973 74.1149 14.3962C74.6737 14.3943 75.2325 14.3932 75.7912 14.3925C76.5062 14.3915 77.2211 14.387 77.9361 14.3816C78.4864 14.3781 79.0367 14.3772 79.587 14.3769C79.8505 14.3763 80.114 14.3748 80.3775 14.3724C80.7468 14.3691 81.1161 14.3699 81.4854 14.3707C81.8004 14.3697 81.8004 14.3697 82.1217 14.3687C82.7589 14.4463 83.1128 14.6193 83.625 15.0001C83.8846 15.6353 83.8727 16.2922 83.6836 16.9454C83.3752 17.3272 83.1452 17.4438 82.6875 17.6251C82.1468 17.6727 82.1468 17.6727 81.5127 17.6736C81.2749 17.6748 81.0371 17.6759 80.7922 17.6772C80.5333 17.6765 80.2745 17.6757 80.0156 17.6749C79.7494 17.6751 79.4833 17.6755 79.2171 17.6759C78.6598 17.6765 78.1025 17.6757 77.5452 17.6739C76.8314 17.6718 76.1178 17.673 75.404 17.6753C74.8546 17.6766 74.3051 17.6762 73.7556 17.6752C73.4925 17.675 73.2294 17.6753 72.9662 17.6762C72.5982 17.6771 72.2303 17.6754 71.8623 17.6736C71.653 17.6733 71.4438 17.673 71.2282 17.6727C70.6921 17.6255 70.386 17.5391 69.9375 17.2501C69.5443 16.7446 69.5634 16.4826 69.5976 15.8321C69.7453 15.2073 69.8056 14.99 70.3125 14.6251C70.8268 14.3679 71.241 14.4109 71.8167 14.4073Z" fill="white"/>
<path d="M14.5228 23.3373C14.8842 23.3329 14.8842 23.3329 15.2528 23.3283C15.5143 23.329 15.7757 23.33 16.0371 23.3311C16.3068 23.3302 16.5764 23.329 16.8461 23.3276C17.4104 23.3257 17.9745 23.3265 18.5388 23.3293C19.2608 23.3325 19.9825 23.3281 20.7044 23.3215C21.261 23.3174 21.8175 23.3176 22.3741 23.3192C22.6402 23.3193 22.9063 23.3181 23.1725 23.3153C23.5449 23.312 23.9173 23.3154 24.2897 23.319C24.5013 23.3192 24.7129 23.3194 24.9309 23.3196C25.6828 23.4752 25.9648 23.7818 26.4375 24.3748C26.5547 25.0311 26.5547 25.0311 26.4375 25.6873C25.9648 26.2804 25.6828 26.587 24.9309 26.7426C24.6135 26.7429 24.6135 26.7429 24.2897 26.7432C24.0488 26.7455 23.8079 26.7479 23.5597 26.7503C23.2982 26.748 23.0368 26.7455 22.7754 26.7428C22.5057 26.7429 22.2361 26.7434 21.9664 26.7441C21.4021 26.7447 20.838 26.7419 20.2737 26.7368C19.5518 26.7304 18.83 26.7315 18.1081 26.735C17.5515 26.737 16.995 26.7353 16.4384 26.7325C16.1723 26.7315 15.9062 26.7316 15.64 26.7328C15.2676 26.7338 14.8952 26.7295 14.5228 26.7249C14.3112 26.7237 14.0996 26.7225 13.8816 26.7213C13.1878 26.6037 12.872 26.3642 12.375 25.8748C12.2505 25.4588 12.2505 25.4588 12.2578 25.0311C12.2554 24.8899 12.253 24.7488 12.2505 24.6034C12.5735 23.5242 13.5177 23.3428 14.5228 23.3373Z" fill="white"/>
<path d="M14.5228 18.8373C14.8842 18.8329 14.8842 18.8329 15.2528 18.8283C15.5143 18.829 15.7757 18.83 16.0371 18.8311C16.3068 18.8302 16.5764 18.829 16.8461 18.8276C17.4104 18.8257 17.9745 18.8265 18.5388 18.8293C19.2608 18.8325 19.9825 18.8281 20.7044 18.8215C21.261 18.8174 21.8175 18.8176 22.3741 18.8192C22.6402 18.8193 22.9063 18.8181 23.1725 18.8153C23.5449 18.812 23.9173 18.8154 24.2897 18.819C24.5013 18.8192 24.7129 18.8194 24.9309 18.8196C25.6828 18.9752 25.9648 19.2818 26.4375 19.8748C26.5547 20.5311 26.5547 20.5311 26.4375 21.1873C25.9648 21.7804 25.6828 22.087 24.9309 22.2426C24.6135 22.2429 24.6135 22.2429 24.2897 22.2432C24.0488 22.2455 23.8079 22.2479 23.5597 22.2503C23.2982 22.248 23.0368 22.2455 22.7754 22.2428C22.5057 22.2429 22.2361 22.2434 21.9664 22.2441C21.4021 22.2447 20.838 22.2419 20.2737 22.2368C19.5518 22.2304 18.83 22.2315 18.1081 22.235C17.5515 22.237 16.995 22.2353 16.4384 22.2325C16.1723 22.2315 15.9062 22.2316 15.64 22.2328C15.2676 22.2338 14.8952 22.2295 14.5228 22.2249C14.3112 22.2237 14.0996 22.2225 13.8816 22.2213C13.1878 22.1037 12.872 21.8642 12.375 21.3748C12.2505 20.9588 12.2505 20.9588 12.2578 20.5311C12.2554 20.3899 12.253 20.2488 12.2505 20.1034C12.5735 19.0242 13.5177 18.8428 14.5228 18.8373Z" fill="white"/>
<path d="M14.5228 14.3373C14.8842 14.3329 14.8842 14.3329 15.2528 14.3283C15.5143 14.329 15.7757 14.33 16.0371 14.3311C16.3068 14.3302 16.5764 14.329 16.8461 14.3276C17.4104 14.3257 17.9745 14.3265 18.5388 14.3293C19.2608 14.3325 19.9825 14.3281 20.7044 14.3215C21.261 14.3174 21.8175 14.3176 22.3741 14.3192C22.6402 14.3193 22.9063 14.3181 23.1725 14.3153C23.5449 14.312 23.9173 14.3154 24.2897 14.319C24.5013 14.3192 24.7129 14.3194 24.9309 14.3196C25.6828 14.4752 25.9648 14.7818 26.4375 15.3748C26.5547 16.0311 26.5547 16.0311 26.4375 16.6873C25.9648 17.2804 25.6828 17.587 24.9309 17.7426C24.6135 17.7429 24.6135 17.7429 24.2897 17.7432C24.0488 17.7455 23.8079 17.7479 23.5597 17.7503C23.2982 17.748 23.0368 17.7455 22.7754 17.7428C22.5057 17.7429 22.2361 17.7434 21.9664 17.7441C21.4021 17.7447 20.838 17.7419 20.2737 17.7368C19.5518 17.7304 18.83 17.7315 18.1081 17.735C17.5515 17.737 16.995 17.7353 16.4384 17.7325C16.1723 17.7315 15.9062 17.7316 15.64 17.7328C15.2676 17.7338 14.8952 17.7295 14.5228 17.7249C14.3112 17.7237 14.0996 17.7225 13.8816 17.7213C13.1878 17.6037 12.872 17.3642 12.375 16.8748C12.2505 16.4588 12.2505 16.4588 12.2578 16.0311C12.2554 15.8899 12.253 15.7488 12.2505 15.6034C12.5735 14.5242 13.5177 14.3428 14.5228 14.3373Z" fill="white"/>
<path d="M41.9648 30.1406C42.1138 30.1368 42.2629 30.1329 42.4164 30.1289C43.3551 30.1227 44.0008 30.225 44.8125 30.75C45.1059 31.3368 45.1307 31.9895 45 32.625C44.6093 33.1111 44.3823 33.3478 43.7637 33.475C43.1755 33.4817 42.5882 33.4864 42 33.4805C41.795 33.485 41.5901 33.4894 41.3789 33.494C39.8846 33.4913 39.8846 33.4913 39.2402 32.9348C38.945 32.3237 38.8882 31.9833 39 31.3125C39.7932 30.0817 40.6273 30.1492 41.9648 30.1406Z" fill="white"/>
<path d="M42 35.3323C42.205 35.3302 42.4099 35.3282 42.6211 35.3261C44.1317 35.3399 44.1317 35.3399 44.6832 35.796C45.0282 36.2227 45.1022 36.3981 45.0937 36.9378C45.0957 37.0615 45.0976 37.1853 45.0996 37.3128C44.9543 37.8598 44.6826 38.08 44.25 38.4378C43.5072 38.5905 42.7568 38.5508 42 38.5432C41.795 38.5477 41.5901 38.5522 41.3789 38.5568C39.8846 38.554 39.8846 38.554 39.2402 37.9976C38.945 37.3865 38.8882 37.046 39 36.3753C39.6222 35.0872 40.7455 35.3049 42 35.3323Z" fill="white"/>
</svg>
