<svg width="65" height="68" viewBox="0 0 65 68" fill="none" xmlns="http://www.w3.org/2000/svg">
<path d="M11.4474 5.21694C11.5039 5.21683 11.5604 5.21671 11.6186 5.2166C11.8099 5.21631 12.0011 5.21659 12.1924 5.21685C12.3301 5.21676 12.4678 5.21664 12.6056 5.21648C12.9855 5.21616 13.3655 5.21632 13.7454 5.21656C14.1546 5.21674 14.5638 5.21647 14.973 5.21625C15.7751 5.2159 16.5773 5.21598 17.3795 5.21621C18.0311 5.21638 18.6827 5.21641 19.3343 5.21632C19.4732 5.2163 19.4732 5.2163 19.6148 5.21628C19.8028 5.21626 19.9909 5.21623 20.1789 5.21621C21.9439 5.21599 23.7089 5.21624 25.4739 5.21666C26.9902 5.21701 28.5064 5.21695 30.0226 5.21659C31.7812 5.21617 33.5398 5.21601 35.2984 5.21625C35.4858 5.21627 35.6731 5.2163 35.8604 5.21632C35.9987 5.21634 35.9987 5.21634 36.1397 5.21636C36.791 5.21642 37.4423 5.21631 38.0936 5.21613C38.8866 5.21591 39.6796 5.21597 40.4727 5.21638C40.8777 5.21659 41.2827 5.21667 41.6878 5.21641C42.0579 5.21618 42.4281 5.2163 42.7982 5.21672C42.9327 5.21681 43.0673 5.21676 43.2018 5.21657C43.3834 5.21634 43.565 5.21658 43.7467 5.21694C43.8479 5.21695 43.9492 5.21697 44.0535 5.21698C44.2769 5.22673 44.2769 5.22673 44.3547 5.30451C44.3632 5.42936 44.3663 5.55458 44.3673 5.67971C44.368 5.75968 44.3687 5.83965 44.3695 5.92204C44.37 6.05269 44.37 6.05269 44.3705 6.18597C44.371 6.2749 44.3714 6.36383 44.3719 6.45546C44.3726 6.64411 44.3731 6.83276 44.3734 7.02141C44.3742 7.31028 44.3766 7.59911 44.379 7.88796C44.3795 8.07093 44.3799 8.25389 44.3802 8.43686C44.3812 8.52349 44.3822 8.61011 44.3832 8.69936C44.3829 8.78007 44.3827 8.86077 44.3824 8.94392C44.3827 9.01485 44.383 9.08578 44.3833 9.15886C44.3492 9.386 44.2671 9.4866 44.1214 9.66045C44.0494 9.85292 44.0494 9.85292 43.9992 10.063C43.9793 10.1403 43.9593 10.2176 43.9388 10.2972C43.9188 10.3774 43.8988 10.4577 43.8783 10.5404C43.8577 10.6197 43.8372 10.6991 43.816 10.7809C43.4079 12.3833 43.5336 14.0241 44.1019 15.5769C44.2922 16.1176 44.4345 16.6392 44.2769 17.2055C44.0336 17.4874 43.7444 17.6483 43.4213 17.8278C42.4205 18.4561 41.6258 19.1888 40.8544 20.0836C40.7573 20.1955 40.66 20.3073 40.5627 20.419C40.523 20.4652 40.4833 20.5115 40.4424 20.5591C40.2751 20.7445 40.0979 20.9185 39.921 21.0948C39.7905 21.2256 39.6601 21.3564 39.5297 21.4873C39.1533 21.865 38.7767 22.2424 38.4 22.6198C38.1729 22.8473 37.9459 23.0749 37.719 23.3026C37.4983 23.5242 37.2775 23.7455 37.0565 23.9667C36.9729 24.0504 36.8894 24.1342 36.8059 24.218C36.3963 24.6297 35.9863 25.0369 35.5428 25.4124C35.2907 25.6319 35.06 25.8734 34.8261 26.1119C34.2236 26.7216 34.2236 26.7216 33.9024 26.9918C32.7087 28.0121 31.9966 29.4122 31.8314 30.9734C31.7509 32.3745 32.1668 33.6591 32.9982 34.7848C33.0474 34.852 33.0966 34.9192 33.1474 34.9884C33.7341 35.7128 34.5561 36.0783 35.4074 36.4195C35.9943 36.7045 35.9943 36.7045 36.1229 37.0573C36.1378 37.1529 36.1526 37.2484 36.1679 37.3469C36.1766 37.3984 36.1853 37.4499 36.1942 37.503C36.2201 37.6598 36.2431 37.8167 36.2651 37.974C36.2893 38.1458 36.3136 38.3176 36.3381 38.4893C36.3553 38.6119 36.3553 38.6119 36.373 38.737C36.4244 39.0044 36.5059 39.2485 36.5957 39.5054C36.7512 39.9903 36.7281 40.2955 36.5763 40.7743C36.5276 40.946 36.479 41.1178 36.4304 41.2896C36.3892 41.4308 36.3892 41.4308 36.3472 41.5749C36.255 41.8989 36.1728 42.2247 36.0924 42.5519C36.0007 42.9238 35.9059 43.2949 35.8097 43.6657C35.7901 43.741 35.7901 43.741 35.7702 43.8178C35.7021 44.0806 35.6335 44.3432 35.5644 44.6057C35.4412 45.0757 35.3228 45.5446 35.2296 46.0217C34.9977 47.1968 34.9977 47.1968 34.6219 47.4589C34.4956 47.5125 34.3692 47.5659 34.2427 47.6193C33.6432 47.929 33.0604 48.2707 32.478 48.611C32.396 48.6589 32.3141 48.7067 32.2296 48.756C31.7813 49.0186 31.3367 49.2856 30.898 49.5639C29.8406 50.2342 28.7519 50.8562 27.6554 51.4599C25.8089 52.4788 24.4293 53.5546 23.7786 55.6317C23.4289 57.1056 23.7539 58.5433 24.5033 59.8378C25.0317 60.6749 25.7179 61.3647 26.6198 61.7761C26.6198 61.8017 26.6198 61.8274 26.6198 61.8539C21.101 61.8795 15.5822 61.9052 9.89617 61.9316C9.89147 55.4949 9.89147 55.4949 9.89019 53.5037C9.89014 53.4326 9.89009 53.3616 9.89005 53.2884C9.8885 50.8983 9.88728 48.5081 9.88629 46.118C9.88626 46.04 9.88623 45.962 9.88619 45.8817C9.88549 44.1868 9.88485 42.492 9.88426 40.7972C9.88396 39.9661 9.88366 39.135 9.88335 38.3038C9.88332 38.2211 9.88329 38.1384 9.88326 38.0532C9.88227 35.3714 9.88051 32.6896 9.87837 30.0078C9.87617 27.2524 9.87473 24.497 9.87426 21.7416C9.87419 21.3526 9.87411 20.9636 9.87403 20.5746C9.87402 20.498 9.874 20.4215 9.87398 20.3426C9.87371 19.1091 9.87263 17.8756 9.87124 16.6422C9.86987 15.4027 9.86934 14.1633 9.86969 12.9239C9.86986 12.1871 9.86939 11.4504 9.86798 10.7136C9.86711 10.2217 9.86708 9.72976 9.86774 9.23785C9.8681 8.9574 9.86808 8.67697 9.86703 8.39652C9.86591 8.09453 9.8666 7.79256 9.86746 7.49057C9.86685 7.40335 9.86623 7.31613 9.8656 7.22627C9.86929 6.65828 9.91915 6.19299 10.283 5.73263C10.3366 5.6828 10.3903 5.63297 10.4455 5.58162C10.4994 5.53038 10.5532 5.47915 10.6087 5.42636C10.8849 5.19118 11.0894 5.21699 11.4474 5.21694Z" fill="white"/>
<path d="M51.2484 20.876C51.3623 20.9743 51.4758 21.0731 51.5887 21.1726C51.6705 21.2335 51.7523 21.2945 51.8366 21.3573C52.4771 21.955 52.7816 22.6977 53.0666 23.5061C53.0876 23.5646 53.1085 23.6232 53.1301 23.6835C53.2727 24.1543 53.2355 24.6535 53.2222 25.1396C52.8807 24.991 52.6454 24.7512 52.376 24.5C52.0752 24.248 51.7835 24.2667 51.404 24.2596C51.3023 24.2567 51.2006 24.2538 51.0959 24.2508C50.7693 24.2888 50.6484 24.3619 50.4219 24.5951C50.1377 25.228 50.2852 25.8783 50.5143 26.5057C50.6701 26.8846 50.8524 27.228 51.0706 27.574C51.224 27.8237 51.3636 28.0798 51.5012 28.3384C51.5272 28.3874 51.5532 28.4363 51.5801 28.4867C51.8039 28.9108 52.0183 29.3396 52.2273 29.7713C52.483 30.3491 52.483 30.3491 52.9348 30.7518C53.1522 30.8203 53.3208 30.8371 53.5481 30.8369C53.6278 30.8372 53.7075 30.8375 53.7896 30.8378C53.8762 30.8374 53.9628 30.8369 54.052 30.8365C54.1898 30.8367 54.1898 30.8367 54.3304 30.8369C54.5819 30.8373 54.8335 30.837 55.085 30.8365C55.3492 30.8363 55.6134 30.8372 55.8776 30.8381C56.7768 30.8411 57.676 30.8425 58.5752 30.8416C59.0721 30.8411 59.569 30.842 60.0659 30.8444C60.3284 30.8456 60.5908 30.8461 60.8532 30.8448C61.1468 30.8437 61.4403 30.845 61.7338 30.8468C61.8193 30.8459 61.9048 30.845 61.9929 30.844C62.7932 30.8535 63.5499 31.1001 64.1308 31.6701C64.6885 32.3183 64.8197 32.9124 64.775 33.7478C64.7219 34.3102 64.5144 34.7418 64.1509 35.1689C64.0546 35.2483 64.0546 35.2483 63.9564 35.3293C63.8969 35.3796 63.8374 35.4299 63.7761 35.4818C63.0862 36.0066 62.3595 36.0864 61.5172 36.0797C61.4085 36.0802 61.2997 36.0809 61.191 36.0818C60.8985 36.0835 60.606 36.0829 60.3135 36.0816C60.0055 36.0806 59.6975 36.0816 59.3895 36.0822C58.8723 36.0829 58.3551 36.082 57.8379 36.0801C57.2427 36.078 56.6474 36.0787 56.0522 36.0808C55.5385 36.0826 55.0248 36.0828 54.5111 36.0818C54.2054 36.0812 53.8998 36.0811 53.5941 36.0824C53.3064 36.0835 53.0187 36.0827 52.731 36.0805C52.577 36.0798 52.4231 36.0809 52.2691 36.0821C51.1826 36.0695 50.3149 35.7163 49.4885 35.0182C49.4133 34.9561 49.4133 34.9561 49.3366 34.8927C48.4766 34.1121 47.9527 32.8275 47.4527 31.7929C47.4255 31.7369 47.3983 31.6809 47.3702 31.6233C47.3191 31.5176 47.2688 31.4115 47.2192 31.3051C47.028 30.9089 46.8133 30.6124 46.4181 30.4064C45.9627 30.2783 45.518 30.2751 45.0937 30.4872C44.8308 30.7239 44.6839 30.8626 44.6256 31.2199C44.611 32.0024 44.7915 32.5565 45.1617 33.2535C45.2122 33.3521 45.2624 33.4509 45.3125 33.5497C45.4118 33.7443 45.5126 33.9381 45.6149 34.1311C45.7357 34.3597 45.8535 34.5894 45.9703 34.8201C46.5781 35.9955 47.4099 36.9182 48.5648 37.5899C49.4976 38.1352 49.4976 38.1352 49.6362 38.5948C49.6782 39.0192 49.5295 39.427 49.4156 39.8311C49.1673 40.6403 49.1673 40.6403 49.1774 41.4743C49.5262 42.0374 50.1197 42.4906 50.6036 42.9404C51.2266 43.5224 51.838 44.1154 52.4425 44.7165C52.555 44.828 52.6678 44.9392 52.7809 45.0501C54.0129 46.2575 54.0129 46.2575 54.3111 46.9192C54.3379 46.9736 54.3646 47.028 54.3922 47.0841C54.4882 47.3728 54.4892 47.6449 54.4886 47.9457C54.489 48.0096 54.4895 48.0735 54.49 48.1393C54.4913 48.3532 54.4916 48.5671 54.4918 48.7811C54.4925 48.9346 54.4933 49.088 54.4941 49.2415C54.4962 49.6584 54.4972 50.0753 54.4979 50.4922C54.4983 50.7529 54.499 51.0135 54.4997 51.2741C54.5018 52.0901 54.5033 52.9061 54.5039 53.7221C54.5046 54.6631 54.5073 55.604 54.5118 56.545C54.5152 57.2729 54.5167 58.0008 54.517 58.7288C54.5171 59.1632 54.518 59.5977 54.5208 60.0322C54.5234 60.4412 54.5237 60.8501 54.5224 61.2591C54.5222 61.4088 54.5229 61.5585 54.5244 61.7081C54.5333 62.6211 54.5056 63.344 53.8412 64.0434C53.2529 64.5982 52.7085 64.8238 51.9047 64.8194C51.85 64.8197 51.7953 64.82 51.7389 64.8203C51.4474 64.8198 51.1691 64.816 50.8886 64.7319C50.863 64.6805 50.8373 64.6292 50.8108 64.5763C50.6905 64.5306 50.6905 64.5306 50.5678 64.4839C50.0459 64.2696 49.7163 63.8511 49.4748 63.3539C49.2319 62.6804 49.2323 62.0345 49.2328 61.3271C49.2324 61.2028 49.2318 61.0785 49.2312 60.9543C49.2301 60.6876 49.2294 60.4209 49.2291 60.1542C49.2285 59.7317 49.2268 59.3093 49.225 58.8868C49.2212 57.9895 49.2187 57.0923 49.2163 56.195C49.2137 55.2273 49.2109 54.2595 49.2066 53.2917C49.2048 52.8725 49.2037 52.4534 49.2032 52.0342C49.2028 51.7724 49.2017 51.5106 49.2004 51.2488C49.1999 51.1283 49.1997 51.0077 49.1998 50.8872C49.2005 49.6538 49.1439 48.6811 48.244 47.7749C48.0937 47.6411 47.9418 47.5094 47.7898 47.3777C47.5137 47.1358 47.2469 46.8843 46.98 46.6324C46.9226 46.5784 46.8653 46.5244 46.8062 46.4688C46.422 46.1056 46.0458 45.7356 45.6744 45.3594C45.429 45.1118 45.1744 44.8818 44.9089 44.6562C44.6501 44.424 44.4078 44.1754 44.1651 43.9265C43.9618 43.7196 43.7541 43.5243 43.5331 43.3363C43.008 42.8821 42.5301 42.3763 42.0424 41.8828C41.5965 41.4321 41.1532 40.9868 40.6706 40.5749C39.6811 39.7061 38.9822 38.3438 38.8001 37.0467C38.7434 35.9235 39.1576 34.7574 39.4519 33.6834C39.5647 33.2633 39.6684 32.8411 39.7712 32.4185C39.8628 32.0467 39.9632 31.6785 40.0696 31.3107C40.2234 30.7773 40.3629 30.241 40.4993 29.703C40.6895 28.9536 40.8836 28.2068 41.1098 27.4674C41.2325 27.0598 41.3287 26.6483 41.4232 26.2334C42.2727 22.5589 42.2727 22.5589 43.4213 21.3281C43.4691 21.2742 43.517 21.2202 43.5663 21.1647C45.6119 18.9708 48.9983 19.0934 51.2484 20.876Z" fill="white"/>
<path d="M12.1721 0.088076C16.8 0.0629127 21.428 0.0561758 26.056 0.0504874C26.5449 0.049885 27.0339 0.0492589 27.5228 0.0486241C27.5768 0.0485545 27.6308 0.048485 27.6864 0.0484134C29.4502 0.0461244 31.2139 0.0413527 32.9776 0.0352931C34.8555 0.0288532 36.7333 0.0249877 38.6112 0.0239164C39.6303 0.0232638 40.6493 0.0214269 41.6684 0.0165526C42.5318 0.0124235 43.3952 0.0106415 44.2586 0.0119719C44.6985 0.0125751 45.1382 0.0120405 45.5781 0.00844966C45.9806 0.00518864 46.383 0.00516452 46.7856 0.00770528C46.931 0.00805481 47.0764 0.00722291 47.2218 0.00508004C48.441 -0.011815 48.441 -0.011815 48.9484 0.428826C49.3262 0.829678 49.4351 1.13894 49.459 1.68236C49.4619 1.73992 49.4649 1.79747 49.4679 1.85676C49.5016 2.59245 49.4969 3.32856 49.4933 4.06482C49.493 4.20869 49.4926 4.35256 49.4923 4.49643C49.4914 4.84358 49.4901 5.19072 49.4885 5.53786C49.4054 5.56 49.4054 5.56 49.3206 5.58259C48.4044 5.82914 47.5641 6.10431 46.766 6.62685C46.5735 6.74236 46.5735 6.74236 46.3771 6.8602C46.3771 5.65376 46.3771 4.44733 46.3771 3.20433C33.671 3.20433 20.9649 3.20433 7.87377 3.20433C7.87537 5.92523 7.87698 8.64613 7.87863 11.4495C7.87854 14.856 7.87854 14.856 7.87777 16.432C7.87773 16.5183 7.87773 16.5183 7.87768 16.6063C7.87762 16.7274 7.87756 16.8485 7.8775 16.9697C7.87741 17.1594 7.87732 17.349 7.87723 17.5387C7.87664 18.7418 7.87604 19.945 7.87537 21.1481C7.87442 22.8387 7.87364 24.5293 7.87318 26.2198C7.87225 29.5953 7.8713 32.9707 7.86775 36.3461C7.86769 36.398 7.86764 36.4499 7.86758 36.5034C7.86636 37.6596 7.86501 38.8158 7.86356 39.9719C7.86297 40.4457 7.86239 40.9194 7.86182 41.3932C7.86176 41.4452 7.86169 41.4973 7.86163 41.551C7.85957 43.2397 7.85875 44.9285 7.85856 46.6172C7.85835 48.3891 7.85671 50.161 7.85351 51.9329C7.85167 52.9728 7.85094 54.0127 7.85171 55.0526C7.85212 55.7547 7.85112 56.4568 7.84898 57.1589C7.84779 57.5616 7.84723 57.9644 7.84836 58.3671C7.84938 58.7345 7.84862 59.1019 7.84643 59.4693C7.84595 59.6018 7.84613 59.7344 7.84704 59.867C7.85511 61.1514 7.85511 61.1514 7.40706 61.6205C7.07122 61.9247 6.70793 62.0338 6.25974 62.0483C5.92781 62.0304 5.72278 61.9942 5.46245 61.7761C5.41263 61.7412 5.36282 61.7064 5.31149 61.6704C4.87604 61.3413 4.87604 61.3413 4.78223 61.0544C4.7605 60.844 4.75807 60.6412 4.76239 60.4297C4.76111 60.3095 4.76111 60.3095 4.75981 60.187C4.75772 59.9176 4.76007 59.6484 4.76239 59.379C4.76179 59.1842 4.76093 58.9893 4.75981 58.7945C4.75801 58.3701 4.75814 57.9459 4.75997 57.5215C4.76268 56.89 4.76183 56.2585 4.76024 55.6269C4.75767 54.5618 4.758 53.4966 4.75997 52.4315C4.76192 51.3696 4.76257 50.3078 4.76151 49.246C4.76145 49.1796 4.76138 49.1133 4.76132 49.045C4.76098 48.7079 4.76062 48.3708 4.76025 48.0338C4.75767 45.6398 4.75799 43.2458 4.75999 40.8518C4.76191 38.5532 4.76258 36.2545 4.76144 33.9558C4.7614 33.8858 4.76137 33.8157 4.76133 33.7435C4.76098 33.0387 4.76061 32.3339 4.76022 31.6291C4.75941 30.165 4.75879 28.7009 4.75828 27.2368C4.75826 27.1687 4.75824 27.1006 4.75821 27.0304C4.75753 25.056 4.75748 23.0815 4.75822 21.107C4.75828 20.9188 4.75835 20.7306 4.75841 20.5424C4.75884 19.2606 4.75953 17.9788 4.76105 16.6971C4.76166 16.1635 4.76217 15.6298 4.76265 15.0962C4.76271 15.0379 4.76276 14.9795 4.76282 14.9194C4.76439 13.1757 4.76006 11.4322 4.75173 9.68851C4.7496 9.23598 4.74782 8.78346 4.74628 8.33093C4.74606 8.268 4.74585 8.20506 4.74563 8.14022C4.74478 7.8885 4.74395 7.63677 4.74316 7.38505C4.74089 6.65645 4.73748 5.92788 4.73199 5.19929C4.7287 4.75029 4.7268 4.30129 4.72599 3.85227C4.72548 3.59435 4.7241 3.3365 4.72141 3.07858C4.71858 2.79862 4.71815 2.51875 4.71831 2.23877C4.7169 2.15819 4.7155 2.07761 4.71405 1.99459C4.71871 1.32602 4.94672 0.870383 5.30914 0.319945C5.68766 0.0755413 6.07422 0.114967 6.51526 0.116868C6.61681 0.115777 6.71837 0.114686 6.82299 0.113562C7.10814 0.110572 7.39325 0.110038 7.6784 0.109886C7.99194 0.109302 8.30545 0.106495 8.61897 0.104007C9.25491 0.0993456 9.89084 0.0969144 10.5268 0.0951397C11.0752 0.0935556 11.6237 0.0910724 12.1721 0.088076Z" fill="white"/>
<path d="M7.5451 64.5697C12.5656 64.5354 17.5861 64.5205 22.6067 64.5099C23.1394 64.5087 23.6721 64.5076 24.2049 64.5064C24.2931 64.5062 24.2931 64.5062 24.3832 64.506C26.3037 64.5017 28.2242 64.4934 30.1447 64.4831C32.1313 64.4724 34.1178 64.4655 36.1043 64.4635C36.3844 64.4633 36.6646 64.4629 36.9447 64.4626C37.0273 64.4625 37.0273 64.4625 37.1116 64.4624C37.9961 64.4612 38.8804 64.456 39.7649 64.4493C40.6506 64.4427 41.5362 64.4405 42.4219 64.4424C42.9012 64.4433 43.3802 64.4423 43.8595 64.4362C44.298 64.4307 44.7361 64.4305 45.1746 64.4347C45.3332 64.4352 45.4918 64.4338 45.6503 64.4302C46.8077 64.4054 46.8077 64.4054 47.1283 64.6914C47.3515 64.9717 47.4942 65.277 47.6327 65.6053C48.0602 66.4882 49.2859 67.1334 50.1602 67.4565C50.344 67.5321 50.344 67.5321 50.4996 67.6877C43.2045 67.7406 35.9092 67.7634 19.9904 67.787C19.6145 67.7873 19.2386 67.7875 18.8627 67.7878C18.7697 67.7879 18.6767 67.788 18.5809 67.788C17.1656 67.7891 15.7504 67.791 14.3352 67.7934C12.7012 67.7962 11.0672 67.7978 9.4332 67.798C8.58267 67.7981 7.73213 67.7987 6.8816 67.8007C6.16692 67.8024 5.45225 67.8031 4.73758 67.8023C4.37511 67.802 4.01266 67.8021 3.6502 67.8036C3.31921 67.805 2.98826 67.8049 2.65728 67.8037C2.53796 67.8035 2.41863 67.8039 2.29931 67.8048C1.67498 67.8093 1.10096 67.8106 0.561954 67.4543C0.394231 67.279 0.394231 67.279 0.289708 67.0995C0.253611 67.04 0.217514 66.9805 0.180324 66.9193C-0.00757187 66.5549 -0.0211127 66.2225 0.0174623 65.8209C0.202627 65.3394 0.478621 64.971 0.935486 64.7199C1.28464 64.5855 1.65231 64.6082 2.0218 64.6084C2.11605 64.6073 2.2103 64.6061 2.3074 64.6049C2.57372 64.602 2.83998 64.6005 3.10631 64.5996C3.40329 64.5982 3.70026 64.5951 3.99724 64.5923C4.61649 64.5868 5.23575 64.5831 5.85502 64.58C6.41838 64.5771 6.98174 64.5736 7.5451 64.5697Z" fill="white"/>
<path d="M38.832 43.2634C40.0024 43.5011 40.7487 44.1938 41.5789 45.0027C41.6909 45.1116 41.8044 45.2191 41.9182 45.3262C42.0885 45.4894 42.2506 45.6565 42.4101 45.8303C42.4706 45.8953 42.531 45.9604 42.5933 46.0275C42.9141 46.4112 43.0767 46.6779 43.047 47.1866C42.9931 47.5874 42.8854 47.9752 42.7859 48.3666C42.7176 48.6453 42.656 48.9248 42.5957 49.2054C41.9468 52.2238 41.9468 52.2238 41.2342 52.7671C40.8427 53.0143 40.4391 53.2366 40.0313 53.4556C39.5311 53.7262 39.0433 54.0176 38.5549 54.3088C38.4634 54.3632 38.372 54.4177 38.2805 54.4721C38.1039 54.5772 37.9273 54.6824 37.7507 54.7877C37.4313 54.9777 37.1108 55.166 36.7902 55.354C36.1979 55.7016 35.6089 56.0547 35.0206 56.409C34.8747 56.4965 34.7289 56.584 34.583 56.6715C34.5259 56.7058 34.4687 56.7401 34.4098 56.7754C34.2881 56.8484 34.1662 56.9213 34.0443 56.9942C33.8871 57.0889 33.7316 57.1856 33.5767 57.284C33.3101 57.4519 33.0384 57.609 32.7648 57.7653C32.4786 57.9303 32.2123 58.1005 31.9529 58.3049C31.7299 58.4807 31.5709 58.5452 31.2869 58.5869C31.2356 58.6639 31.1842 58.7409 31.1313 58.8203C31.0024 58.8738 30.8727 58.9257 30.7424 58.9758C30.7167 59.0272 30.6911 59.0785 30.6646 59.1314C29.9569 59.5147 29.1241 59.5654 28.3515 59.3684C27.6523 59.144 27.2034 58.8683 26.8052 58.2296C26.4618 57.5234 26.392 56.6939 26.611 55.9374C27.0233 55.0388 27.8186 54.6206 28.6422 54.1532C28.7255 54.1055 28.8087 54.0577 28.8944 54.0086C29.0672 53.9097 29.2401 53.8112 29.4131 53.7129C29.8157 53.4834 30.2158 53.2493 30.616 53.0156C30.7361 52.9455 30.7361 52.9455 30.8587 52.8739C31.1832 52.6844 31.5078 52.4947 31.8323 52.305C32.0621 52.1707 32.2919 52.0365 32.5217 51.9023C32.5978 51.8579 32.6738 51.8134 32.7521 51.7676C33.1639 51.5272 33.5767 51.2887 33.9908 51.0525C36.5204 49.6774 36.5204 49.6774 37.8284 47.2115C37.88 47.0138 37.931 46.8159 37.9812 46.6178C38.0323 46.4203 38.0834 46.2228 38.1347 46.0253C38.1596 45.9287 38.1846 45.8321 38.2103 45.7325C38.2876 45.441 38.3698 45.1513 38.4537 44.8616C38.5613 44.4891 38.6573 44.1196 38.7348 43.7398C38.7631 43.6029 38.7631 43.6029 38.7919 43.4633C38.8051 43.3973 38.8184 43.3313 38.832 43.2634Z" fill="white"/>
<path d="M53.2246 8.94947C54.2671 9.68841 54.9931 10.583 55.264 11.853C55.4442 13.0159 55.3373 14.1531 54.6806 15.1546C53.9946 16.0825 53.0553 16.9486 51.8861 17.1758C51.5153 17.2129 51.1493 17.2199 50.7768 17.2202C50.7066 17.2211 50.6363 17.2221 50.564 17.223C49.4826 17.2254 48.5811 16.82 47.8015 16.0704C46.8443 15.0743 46.4411 14.1203 46.4403 12.7524C46.4394 12.6673 46.4384 12.5821 46.4374 12.4944C46.4362 11.8365 46.4536 11.225 46.8438 10.6717C46.9089 10.5724 46.9089 10.5724 46.9754 10.4711C48.4325 8.39043 50.9799 7.57259 53.2246 8.94947Z" fill="white"/>
<path d="M44.1991 53.6087C44.2505 53.6087 44.3018 53.6087 44.3547 53.6087C44.329 56.3296 44.3034 59.0505 44.2769 61.8539C40.0159 61.8539 35.7548 61.8539 31.3647 61.8539C31.3647 61.8025 31.3647 61.7512 31.3647 61.6983C31.4642 61.6839 31.5636 61.6694 31.6661 61.6545C32.0471 61.5682 32.2888 61.402 32.5989 61.1711C32.9026 60.9557 33.2179 60.7656 33.5378 60.5753C33.6032 60.5363 33.6686 60.4973 33.736 60.4572C33.9566 60.3261 34.1774 60.1954 34.3983 60.0648C34.5739 59.9607 34.7495 59.8566 34.9252 59.7525C35.1989 59.5902 35.4727 59.428 35.7465 59.2659C36.2117 58.9904 36.6767 58.7146 37.1402 58.4362C37.1849 58.4094 37.2296 58.3825 37.2757 58.3549C37.4992 58.2205 37.7223 58.0856 37.9451 57.9501C38.454 57.6413 38.9668 57.3426 39.4883 57.0555C42.1692 55.8129 42.1692 55.8129 44.1417 53.8214C44.1607 53.7512 44.1796 53.681 44.1991 53.6087Z" fill="white"/>
<path d="M17.0377 32.4086C17.0958 32.4078 17.1539 32.407 17.2138 32.4062C17.4045 32.404 17.5951 32.4042 17.7858 32.4045C17.9193 32.4039 18.0529 32.4032 18.1865 32.4025C18.4659 32.4013 18.7454 32.4014 19.0248 32.4022C19.3815 32.4031 19.7381 32.4005 20.0947 32.3969C20.3705 32.3946 20.6462 32.3944 20.922 32.3949C21.0534 32.3948 21.1848 32.394 21.3162 32.3925C22.5521 32.3795 22.5521 32.3795 23.0731 32.7947C23.4546 33.1736 23.5275 33.4448 23.5473 33.973C23.5336 34.3987 23.4952 34.6342 23.1973 34.9404C23.0271 35.0328 23.0271 35.0328 22.8861 35.096C22.8605 35.173 22.8348 35.25 22.8083 35.3293C21.9963 35.3467 21.1842 35.3624 20.3721 35.3759C19.995 35.3822 19.6179 35.3891 19.2408 35.3974C18.8766 35.4053 18.5125 35.4117 18.1483 35.417C18.0096 35.4193 17.8709 35.4222 17.7322 35.4256C17.5375 35.4303 17.3428 35.4331 17.148 35.4353C17.091 35.4372 17.0341 35.439 16.9754 35.4409C16.5433 35.4427 16.3113 35.3326 15.9633 35.096C15.6211 34.7348 15.4084 34.3667 15.3751 33.866C15.39 33.4144 15.5691 33.0807 15.8855 32.7625C16.2761 32.502 16.5645 32.4052 17.0377 32.4086Z" fill="white"/>
<path d="M37.9618 27.2106C38.1319 27.2397 38.1319 27.2397 38.2097 27.3175C38.1934 27.7821 38.097 28.2446 38.0007 28.6982C37.9807 28.7931 37.9807 28.7931 37.9603 28.89C37.8417 29.434 37.691 29.9663 37.5322 30.4997C37.3582 31.0917 37.2222 31.6895 37.1003 32.2943C37.0787 32.3964 37.0787 32.3964 37.0566 32.5005C37.0445 32.5606 37.0324 32.6207 37.02 32.6826C36.9562 32.8661 36.8725 32.9426 36.7318 33.0736C36.6504 33.2273 36.572 33.3827 36.4985 33.5403C36.1859 33.5859 35.9152 33.6015 35.6298 33.4519C35.0921 33.0224 34.7445 32.4314 34.6617 31.7464C34.6056 30.8331 34.8749 30.0699 35.4807 29.3805C35.7339 29.1087 36.0011 28.8522 36.27 28.5961C36.3611 28.5071 36.4521 28.4179 36.543 28.3286C37.6441 27.2529 37.6441 27.2529 37.9618 27.2106Z" fill="white"/>
<path d="M49.3329 67.1432C49.4693 67.1895 49.6053 67.2367 49.7413 67.2842C49.855 67.3234 49.855 67.3234 49.971 67.3635C50.1885 67.4543 50.1885 67.4543 50.4997 67.6877C48.9595 67.6877 47.4194 67.6877 45.8326 67.6877C45.8069 67.6363 45.7813 67.585 45.7548 67.5321C46.1912 67.5321 46.6276 67.5321 47.0772 67.5321C47.0772 67.4808 47.0772 67.4294 47.0772 67.3765C46.7691 67.3765 46.4611 67.3765 46.1437 67.3765C46.1437 67.3509 46.1437 67.3252 46.1437 67.2988C47.2068 67.2988 48.2699 67.2988 49.3329 67.2988C49.3329 67.2474 49.3329 67.1961 49.3329 67.1432Z" fill="white"/>
<path d="M55.0889 11.4495C55.1146 11.4495 55.1403 11.4495 55.1667 11.4495C55.3656 12.3037 55.4388 13.1741 55.1667 14.0164C55.141 14.0164 55.1154 14.0164 55.0889 14.0164C55.0889 13.1693 55.0889 12.3222 55.0889 11.4495Z" fill="white"/>
<path d="M46.3771 3.20428C46.4027 3.20428 46.4284 3.20428 46.4549 3.20428C46.4805 4.33372 46.5062 5.46315 46.5326 6.6268C46.584 6.65247 46.6353 6.67814 46.6882 6.70459C46.5855 6.75593 46.4829 6.80726 46.3771 6.86016C46.3771 5.65372 46.3771 4.44728 46.3771 3.20428Z" fill="white"/>
<path d="M53.1443 24.1284C53.17 24.1284 53.1957 24.1284 53.2221 24.1284C53.2221 24.4621 53.2221 24.7957 53.2221 25.1396C52.9411 24.999 52.8458 24.9323 52.6582 24.702C52.6177 24.6529 52.5772 24.6038 52.5354 24.5531C52.5053 24.5156 52.4753 24.4781 52.4443 24.4395C52.5889 24.3936 52.5889 24.3936 52.7554 24.3617C52.9304 24.4735 52.9304 24.4735 53.0666 24.5951C53.0922 24.4411 53.1179 24.287 53.1443 24.1284Z" fill="white"/>
<path d="M38.9097 35.9516C38.9354 35.9516 38.9611 35.9516 38.9875 35.9516C39.0139 36.1995 39.0397 36.4474 39.0653 36.6954C39.0764 36.7999 39.0764 36.7999 39.0878 36.9064C39.1272 37.2907 39.1516 37.6656 39.1431 38.0518C39.1174 38.0518 39.0918 38.0518 39.0653 38.0518C38.8121 37.3842 38.7008 36.649 38.9097 35.9516Z" fill="white"/>
<path d="M41.71 25.1396C41.7614 25.1653 41.8127 25.1909 41.8656 25.2174C41.8073 25.8105 41.8073 25.8105 41.6323 26.073C41.5454 25.7082 41.5695 25.4867 41.71 25.1396Z" fill="white"/>
<path d="M46.3771 5.46008C46.4027 5.46008 46.4284 5.46008 46.4549 5.46008C46.4587 5.54341 46.4625 5.62673 46.4664 5.71258C46.4722 5.82126 46.4781 5.92993 46.484 6.03861C46.4864 6.0936 46.4888 6.1486 46.4913 6.20526C46.4994 6.34623 46.5155 6.4867 46.5326 6.62685C46.584 6.65252 46.6353 6.67819 46.6882 6.70464C46.5342 6.78164 46.5342 6.78164 46.3771 6.8602C46.3771 6.39816 46.3771 5.93612 46.3771 5.46008Z" fill="white"/>
</svg>
