<svg width="97" height="97" viewBox="0 0 97 97" fill="none" xmlns="http://www.w3.org/2000/svg">
<g clip-path="url(#clip0_1216_655)">
<path d="M12.3634 13.7323C12.6229 13.7306 12.6229 13.7306 12.8877 13.729C13.0762 13.7288 13.2647 13.7286 13.4589 13.7284C13.7583 13.727 13.7583 13.727 14.0637 13.7255C14.7246 13.7228 15.3854 13.7215 16.0463 13.7204C16.5059 13.7194 16.9656 13.7183 17.4253 13.7172C18.3897 13.7152 19.3542 13.7141 20.3186 13.7134C21.5523 13.7124 22.786 13.7079 24.0197 13.7025C24.9697 13.699 25.9196 13.698 26.8696 13.6977C27.3242 13.6972 27.7789 13.6957 28.2336 13.6932C28.871 13.69 29.5083 13.6903 30.1457 13.6915C30.3323 13.6898 30.5189 13.6881 30.7111 13.6863C32.5758 13.6974 33.8935 14.129 35.2547 15.4189C36.3004 16.5946 36.5861 17.8224 36.5948 19.3635C36.5957 19.4895 36.5967 19.6156 36.5976 19.7455C36.6004 20.1616 36.6017 20.5776 36.6027 20.9937C36.6038 21.2844 36.6049 21.575 36.606 21.8657C36.608 22.4752 36.6091 23.0847 36.6097 23.6942C36.6107 24.4715 36.6153 25.2488 36.6206 26.0262C36.6242 26.6269 36.6251 27.2276 36.6254 27.8283C36.626 28.1147 36.6275 28.401 36.63 28.6874C36.6481 30.936 36.5115 32.6162 34.9042 34.3122C32.4943 36.4558 29.2896 35.622 26.1982 35.622C26.1982 44.5784 26.1982 53.5348 26.1982 62.7626C31.7338 62.7626 37.2693 62.7626 42.9726 62.7626C42.9562 59.4116 42.9562 59.4116 42.9395 55.9929C42.9347 54.58 42.9301 53.167 42.9266 51.7541C42.921 49.51 42.9144 47.2659 42.9016 45.0219C42.8922 43.3876 42.8861 41.7535 42.884 40.1192C42.8827 39.2538 42.8799 38.3884 42.873 37.523C42.8666 36.7085 42.8646 35.8941 42.8661 35.0795C42.8658 34.7805 42.8639 34.4816 42.8603 34.1826C42.8556 33.7743 42.8567 33.3663 42.8593 32.9579C42.858 32.6153 42.858 32.6153 42.8567 32.2656C43.011 31.4649 43.2558 31.195 43.915 30.7216C44.4336 30.6286 44.8357 30.5938 45.3529 30.6019C45.4962 30.6005 45.6395 30.599 45.7871 30.5975C46.2666 30.5937 46.7457 30.5967 47.2251 30.5997C47.5691 30.5984 47.9131 30.5967 48.2571 30.5947C49.1909 30.5904 50.1247 30.592 51.0585 30.595C52.0356 30.5974 53.0126 30.5952 53.9897 30.5937C55.6305 30.592 57.2713 30.5943 58.9122 30.5988C60.8094 30.6039 62.7066 30.6022 64.6039 30.597C66.2326 30.5928 67.8612 30.5922 69.4899 30.5946C70.4628 30.5961 71.4356 30.5963 72.4085 30.5932C73.3231 30.5904 74.2376 30.5923 75.1522 30.5978C75.488 30.599 75.8237 30.5987 76.1595 30.5966C76.6177 30.594 77.0756 30.5972 77.5338 30.6019C77.6668 30.5998 77.7998 30.5977 77.9369 30.5956C78.6256 30.6093 78.9616 30.7144 79.5256 31.1194C80.0026 31.7881 80.0305 32.1416 80.0274 32.9579C80.0282 33.0857 80.029 33.2135 80.0298 33.3452C80.0314 33.7722 80.0262 34.1988 80.021 34.6257C80.0208 34.9323 80.0209 35.2388 80.0215 35.5453C80.0217 36.3767 80.0162 37.2079 80.0096 38.0393C80.0037 38.9083 80.0032 39.7774 80.002 40.6465C79.9991 42.2919 79.9914 43.9373 79.9819 45.5827C79.9714 47.456 79.9662 49.3294 79.9615 51.2027C79.9516 55.0561 79.9351 58.9093 79.9141 62.7626C80.0775 62.7605 80.241 62.7584 80.4094 62.7563C81.9565 62.7373 83.5035 62.723 85.0507 62.7138C85.846 62.7089 86.6412 62.7023 87.4364 62.6915C88.2051 62.6812 88.9737 62.6756 89.7424 62.6732C90.0344 62.6715 90.3264 62.6681 90.6183 62.663C92.2885 62.6349 93.7864 62.6499 95.1807 63.705C96.3753 64.9915 96.5705 66.0114 96.5508 67.7536C96.468 68.8347 96.1873 69.5139 95.3934 70.2531C93.4157 71.8158 92.2255 71.4325 89.3379 71.4325C89.3379 74.1692 89.3379 76.9059 89.3379 79.7255C90.2708 79.7255 91.2038 79.7255 92.165 79.7255C93.1074 80.6679 93.1074 80.6679 93.2252 81.2333C93.0646 82.0044 92.7779 82.2531 92.165 82.7411C91.6318 82.8339 91.2121 82.8682 90.68 82.8597C90.4564 82.8618 90.4564 82.8618 90.2282 82.8639C89.7266 82.8673 89.2253 82.864 88.7237 82.8608C88.3612 82.8619 87.9988 82.8634 87.6364 82.8653C86.6389 82.8692 85.6415 82.8672 84.644 82.8643C83.5689 82.8622 82.4938 82.8655 81.4187 82.8681C79.3119 82.8723 77.2052 82.8714 75.0984 82.8686C73.3867 82.8665 71.6749 82.8662 69.9632 82.8672C69.7198 82.8674 69.4764 82.8675 69.2257 82.8677C68.7314 82.868 68.237 82.8683 67.7427 82.8686C63.2364 82.8712 58.7302 82.8685 54.224 82.8636C50.1091 82.8591 45.9942 82.8595 41.8793 82.864C37.2577 82.869 32.6361 82.871 28.0145 82.8681C27.5219 82.8678 27.0294 82.8675 26.5368 82.8672C26.1733 82.867 26.1733 82.867 25.8024 82.8668C24.0921 82.866 22.3818 82.8674 20.6716 82.8696C18.5881 82.8722 16.5047 82.8715 14.4212 82.8665C13.3576 82.864 12.2941 82.8631 11.2305 82.8662C10.2576 82.869 9.28487 82.8674 8.31202 82.8624C7.95931 82.8614 7.60659 82.8619 7.25388 82.8642C6.77577 82.867 6.29804 82.8641 5.81995 82.8597C5.6127 82.863 5.6127 82.863 5.40127 82.8664C4.67001 82.8529 4.35772 82.7593 3.77831 82.2979C3.39256 81.7988 3.39256 81.7988 3.27477 81.2333C3.39256 80.6679 3.39256 80.6679 4.33495 79.7255C5.26791 79.7255 6.20087 79.7255 7.1621 79.7255C7.1621 76.9888 7.1621 74.2522 7.1621 71.4325C5.85595 71.4325 4.54981 71.4325 3.20409 71.4325C1.75239 70.9436 0.944821 70.3164 0.188463 68.9824C-0.219354 67.7589 -0.243428 66.1237 0.282702 64.9301C0.932465 63.8526 2.0283 63.1507 3.20409 62.7626C3.68545 62.7294 4.14524 62.7148 4.62599 62.7198C4.83914 62.7198 4.83914 62.7198 5.05659 62.7197C5.51426 62.72 5.97188 62.7228 6.42954 62.7258C6.71301 62.7264 6.99649 62.7268 7.27996 62.727C8.32835 62.7289 9.37672 62.7342 10.4251 62.7391C13.9412 62.7507 13.9412 62.7507 17.5283 62.7626C17.5283 53.8062 17.5283 44.8498 17.5283 35.622C15.538 35.622 13.5477 35.622 11.4971 35.622C9.73215 35.0337 8.49723 34.4264 7.63329 32.736C7.25958 31.8173 7.13655 31.1812 7.12874 30.1925C7.12688 29.998 7.12688 29.998 7.12498 29.7995C7.12127 29.3701 7.11907 28.9408 7.11719 28.5114C7.11642 28.3644 7.11565 28.2173 7.11486 28.0657C7.11093 27.2866 7.10823 26.5074 7.10646 25.7282C7.10438 24.9265 7.09791 24.1249 7.09041 23.3233C7.08546 22.7043 7.0839 22.0853 7.08323 21.4663C7.08231 21.171 7.08014 20.8757 7.07662 20.5804C7.05173 18.3478 7.30513 16.7169 8.8709 15.0265C9.86578 14.1382 11.0427 13.7372 12.3634 13.7323ZM10.3945 17.9696C10.1308 18.5791 10.1047 19.0378 10.1016 19.7016C10.0992 19.9469 10.0968 20.1922 10.0943 20.445C10.0947 20.7113 10.0953 20.9777 10.096 21.244C10.0951 21.5189 10.0941 21.7937 10.093 22.0686C10.0913 22.6438 10.0918 23.219 10.0937 23.7943C10.0958 24.5297 10.092 25.2649 10.0865 26.0003C10.083 26.5677 10.0831 27.1351 10.0842 27.7025C10.0842 27.9735 10.0831 28.2446 10.0807 28.5156C10.0779 28.8953 10.0804 29.275 10.0832 29.6548C10.0832 29.8704 10.0832 30.086 10.0833 30.3082C10.2273 31.2262 10.6381 31.7839 11.3298 32.3896C12.1484 32.7157 12.9235 32.6866 13.797 32.6825C14.0868 32.6845 14.0868 32.6845 14.3824 32.6865C15.0205 32.6899 15.6585 32.6892 16.2966 32.6881C16.7404 32.689 17.1843 32.69 17.6282 32.6911C18.5584 32.6928 19.4885 32.6923 20.4187 32.6904C21.6105 32.6883 22.8021 32.6921 23.9938 32.6976C24.9105 32.7011 25.8271 32.701 26.7437 32.6999C27.1831 32.6999 27.6225 32.701 28.0618 32.7034C28.6763 32.7062 29.2906 32.7042 29.9051 32.7009C30.177 32.7037 30.177 32.7037 30.4544 32.7065C31.5129 32.6948 32.1629 32.5888 32.9834 31.8525C33.5515 31.1333 33.6207 30.584 33.625 29.6791C33.6274 29.4338 33.6297 29.1885 33.6322 28.9357C33.6318 28.6694 33.6313 28.403 33.6305 28.1367C33.6314 27.8618 33.6324 27.587 33.6335 27.3122C33.6352 26.7369 33.6348 26.1617 33.6329 25.5864C33.6307 24.851 33.6345 24.1158 33.64 23.3804C33.6435 22.813 33.6434 22.2456 33.6424 21.6782C33.6423 21.4072 33.6435 21.1362 33.6458 20.8651C33.6486 20.4854 33.6461 20.1057 33.6434 19.726C33.6433 19.5103 33.6433 19.2947 33.6433 19.0725C33.4992 18.1546 33.0884 17.5968 32.3968 16.9911C31.5782 16.6651 30.8031 16.6941 29.9295 16.6982C29.6397 16.6963 29.6397 16.6963 29.3441 16.6943C28.706 16.6908 28.068 16.6916 27.43 16.6926C26.9861 16.6918 26.5422 16.6908 26.0984 16.6896C25.1682 16.6879 24.238 16.6884 23.3078 16.6903C22.1161 16.6924 20.9244 16.6886 19.7327 16.6831C18.8161 16.6797 17.8995 16.6797 16.9828 16.6808C16.5435 16.6808 16.1041 16.6797 15.6647 16.6774C15.0502 16.6746 14.4359 16.6766 13.8214 16.6798C13.6401 16.678 13.4589 16.6761 13.2721 16.6743C11.9947 16.6883 11.2193 16.9255 10.3945 17.9696ZM45.9883 33.7372C45.9883 43.3156 45.9883 52.894 45.9883 62.7626C56.1886 62.7626 66.389 62.7626 76.8984 62.7626C76.8984 53.1842 76.8984 43.6059 76.8984 33.7372C74.2861 33.7372 71.6739 33.7372 68.9824 33.7372C68.9776 34.6287 68.9727 35.5201 68.9677 36.4385C68.9629 37.0028 68.958 37.5671 68.9522 38.1315C68.9431 39.0274 68.9348 39.9233 68.9313 40.8193C68.9285 41.5416 68.922 42.2638 68.913 42.986C68.9102 43.2617 68.9087 43.5375 68.9085 43.8132C68.9081 44.1991 68.903 44.5847 68.8968 44.9706C68.8943 45.3002 68.8943 45.3002 68.8917 45.6364C68.7939 46.1767 68.7939 46.1767 68.4465 46.5338C67.9711 46.7775 67.6426 46.7933 67.12 46.6904C66.2178 46.3814 65.4205 45.8492 64.6121 45.3521C64.4266 45.2408 64.2411 45.1296 64.05 45.0149C62.6488 44.1691 62.6488 44.1691 62.1978 43.7724C61.8304 43.4951 61.8304 43.4951 61.3693 43.5575C60.7878 43.7575 60.3216 44.0282 59.8015 44.3567C59.4961 44.5459 59.4961 44.5459 59.1846 44.7388C58.7593 45.0052 58.335 45.2731 57.9109 45.5413C57.6048 45.7305 57.6048 45.7305 57.2924 45.9234C57.1079 46.0397 56.9235 46.1559 56.7334 46.2757C56.0793 46.5961 55.5747 46.7198 54.8467 46.7421C54.4364 46.536 54.4364 46.536 54.0928 46.1767C53.9949 45.6364 53.9949 45.6364 53.9899 44.9706C53.9879 44.8492 53.986 44.7278 53.984 44.6027C53.9784 44.2019 53.9781 43.8012 53.9779 43.4003C53.9751 43.1223 53.9719 42.8442 53.9685 42.5661C53.9602 41.8345 53.9565 41.103 53.9536 40.3714C53.9493 39.4934 53.9394 38.6155 53.9305 37.7376C53.9175 36.4041 53.9116 35.0708 53.9043 33.7372C51.292 33.7372 48.6797 33.7372 45.9883 33.7372ZM56.7314 33.7372C56.7314 36.7227 56.7314 39.7082 56.7314 42.7841C58.6861 41.6931 58.6861 41.6931 60.5304 40.4871C61.0891 40.2408 61.3946 40.2442 62.0088 40.3339C62.6834 40.6627 63.309 41.0606 63.9407 41.4648C64.2789 41.6775 64.6176 41.8896 64.9567 42.1009C65.1054 42.1956 65.2542 42.2904 65.4074 42.388C65.7623 42.6263 65.7623 42.6263 66.1553 42.5956C66.1553 39.6724 66.1553 36.7491 66.1553 33.7372C63.0454 33.7372 59.9355 33.7372 56.7314 33.7372ZM20.5439 35.622C20.5439 44.5784 20.5439 53.5348 20.5439 62.7626C21.4147 62.7626 22.2855 62.7626 23.1826 62.7626C23.1826 53.8062 23.1826 44.8498 23.1826 35.622C22.3118 35.622 21.4411 35.622 20.5439 35.622ZM3.30595 66.1258C2.97375 66.5278 2.97375 66.5278 2.92137 67.0976C3.04005 67.8096 3.19484 67.9861 3.76952 68.4169C4.2881 68.4908 4.7312 68.5183 5.24951 68.5118C5.40036 68.5129 5.5512 68.514 5.70661 68.5151C6.21527 68.5179 6.72375 68.5152 7.23241 68.5127C7.59947 68.5135 7.96653 68.5147 8.33358 68.5162C9.34474 68.5194 10.3558 68.5178 11.367 68.5155C12.4565 68.5138 13.546 68.5164 14.6355 68.5185C16.7708 68.5218 18.9061 68.5211 21.0414 68.5189C22.7763 68.5172 24.5112 68.517 26.246 68.5178C26.4926 68.5179 26.7392 68.518 26.9932 68.5182C27.4941 68.5184 27.995 68.5186 28.4958 68.5189C33.0623 68.5211 37.6288 68.5188 42.1952 68.5149C46.3657 68.5113 50.5363 68.5116 54.7068 68.5152C59.3901 68.5192 64.0734 68.5208 68.7568 68.5185C69.2558 68.5183 69.7549 68.518 70.2539 68.5178C70.4995 68.5177 70.7451 68.5176 70.9981 68.5175C72.7316 68.5168 74.4651 68.5179 76.1986 68.5197C78.3101 68.5218 80.4216 68.5212 82.5332 68.5172C83.6112 68.5152 84.6893 68.5145 85.7673 68.5169C86.7532 68.5192 87.739 68.518 88.7249 68.5139C89.0825 68.5131 89.4402 68.5135 89.7979 68.5154C90.2821 68.5176 90.7662 68.5153 91.2505 68.5118C91.391 68.5136 91.5315 68.5153 91.6763 68.5171C92.3214 68.5077 92.6713 68.4612 93.194 68.0694C93.5262 67.6674 93.5262 67.6674 93.5786 67.0976C93.4599 66.3855 93.3051 66.2091 92.7305 65.7783C92.2119 65.7044 91.7688 65.6769 91.2505 65.6834C91.0242 65.6817 91.0242 65.6817 90.7934 65.6801C90.2847 65.6773 89.7762 65.6799 89.2676 65.6825C88.9005 65.6816 88.5334 65.6805 88.1664 65.679C87.1552 65.6758 86.1441 65.6774 85.133 65.6797C84.0435 65.6814 82.954 65.6788 81.8645 65.6767C79.7292 65.6733 77.5939 65.6741 75.4585 65.6763C73.7237 65.678 71.9888 65.6782 70.2539 65.6774C70.0074 65.6772 69.7608 65.6771 69.5067 65.677C69.0059 65.6768 68.505 65.6765 68.0041 65.6763C63.4377 65.6741 58.8712 65.6764 54.3047 65.6803C50.1342 65.6839 45.9637 65.6836 41.7932 65.68C37.1099 65.6759 32.4265 65.6743 27.7432 65.6767C27.2442 65.6769 26.7451 65.6771 26.246 65.6774C26.0005 65.6775 25.7549 65.6776 25.5019 65.6777C23.7684 65.6784 22.0349 65.6773 20.3014 65.6755C18.1899 65.6734 16.0783 65.674 13.9668 65.678C12.8887 65.68 11.8107 65.6807 10.7326 65.6782C9.74676 65.676 8.76097 65.6772 7.77511 65.6812C7.41744 65.6821 7.05978 65.6816 6.70212 65.6798C6.21783 65.6775 5.73379 65.6799 5.24951 65.6834C5.10899 65.6816 4.96846 65.6798 4.82367 65.678C4.17853 65.6875 3.82863 65.7339 3.30595 66.1258ZM10.1777 71.4325C10.1777 74.1692 10.1777 76.9059 10.1777 79.7255C35.3054 79.7255 60.4331 79.7255 86.3223 79.7255C86.3223 76.9888 86.3223 74.2522 86.3223 71.4325C61.1946 71.4325 36.0669 71.4325 10.1777 71.4325Z" fill="white"/>
<path d="M54.1495 56.9865C54.3246 56.9849 54.4997 56.9832 54.6801 56.9815C55.2579 56.9774 55.8355 56.9801 56.4134 56.9833C56.8155 56.9826 57.2175 56.9817 57.6196 56.9805C58.4619 56.9792 59.304 56.9812 60.1463 56.9856C61.2257 56.991 62.3049 56.9879 63.3843 56.9822C64.2144 56.9788 65.0445 56.9799 65.8746 56.9823C66.2726 56.983 66.6705 56.9822 67.0685 56.98C67.6249 56.9776 68.1809 56.9813 68.7373 56.9865C68.9837 56.9836 68.9837 56.9836 69.2352 56.9807C70.0591 56.9951 70.3914 57.032 71.0636 57.5519C71.4326 58.0508 71.4326 58.0508 71.5504 58.6163C71.3879 59.3964 71.1192 59.6376 70.4902 60.1241C69.9057 60.2611 69.3356 60.253 68.7373 60.246C68.5622 60.2477 68.3871 60.2493 68.2066 60.251C67.6288 60.2552 67.0512 60.2524 66.4733 60.2492C66.0713 60.2499 65.6692 60.2508 65.2671 60.252C64.4249 60.2533 63.5827 60.2513 62.7404 60.2469C61.661 60.2416 60.5818 60.2446 59.5025 60.2503C58.6723 60.2537 57.8422 60.2526 57.0121 60.2502C56.6141 60.2495 56.2162 60.2503 55.8182 60.2525C55.2618 60.2549 54.7058 60.2513 54.1495 60.246C53.903 60.2489 53.903 60.2489 53.6515 60.2518C52.8277 60.2374 52.4953 60.2005 51.8231 59.6806C51.4541 59.1817 51.4541 59.1817 51.3363 58.6163C51.6606 57.0597 52.8066 56.9709 54.1495 56.9865Z" fill="white"/>
<path d="M15.9358 26.4777C16.1493 26.4757 16.1493 26.4757 16.367 26.4737C16.8367 26.4704 17.3061 26.4726 17.7757 26.4751C18.1024 26.4746 18.4291 26.4739 18.7559 26.473C19.4403 26.4719 20.1247 26.4735 20.8092 26.477C21.6864 26.4813 22.5634 26.4788 23.4406 26.4743C24.1152 26.4716 24.7898 26.4724 25.4643 26.4744C25.7878 26.4749 26.1112 26.4743 26.4346 26.4725C26.8868 26.4706 27.3386 26.4735 27.7907 26.4777C27.9243 26.4762 28.0579 26.4747 28.1955 26.4731C28.8294 26.484 29.1625 26.5364 29.6739 26.9237C29.9678 27.3292 29.9678 27.3292 30.062 27.8828C29.9427 28.614 29.747 28.8895 29.2139 29.4024C28.7005 29.4969 28.3037 29.5298 27.7907 29.5214C27.5773 29.5234 27.5773 29.5234 27.3596 29.5255C26.8899 29.5286 26.4205 29.525 25.9509 29.521C25.6242 29.5211 25.2974 29.5216 24.9707 29.5223C24.2862 29.5229 23.6019 29.5201 22.9174 29.5149C22.0402 29.5085 21.1632 29.5096 20.2859 29.5132C19.6114 29.5152 18.9368 29.5135 18.2622 29.5107C17.9388 29.5097 17.6154 29.5098 17.292 29.5109C16.8398 29.512 16.388 29.5081 15.9358 29.503C15.7355 29.5048 15.7355 29.5048 15.5311 29.5067C14.9021 29.4945 14.5632 29.44 14.0527 29.0604C13.6224 28.4574 13.6556 28.0512 13.7588 27.3292C14.3557 26.4922 14.973 26.4667 15.9358 26.4777Z" fill="white"/>
<path d="M22.1931 19.8783C22.3911 19.8776 22.589 19.8769 22.793 19.8761C23.2112 19.8756 23.6295 19.877 24.0477 19.8802C24.6881 19.8842 25.3281 19.8802 25.9685 19.8754C26.3749 19.8759 26.7813 19.8769 27.1877 19.8783C27.3794 19.8768 27.571 19.8753 27.7684 19.8737C29.0894 19.8913 29.0894 19.8913 29.7116 20.3271C30.0667 20.8889 30.0745 21.2098 29.9678 21.8632C29.7116 22.3631 29.7116 22.3631 29.2139 22.8056C28.5397 22.9479 27.8745 22.9331 27.1877 22.9241C26.8908 22.9248 26.8908 22.9248 26.5879 22.9255C26.1696 22.9253 25.7514 22.9228 25.3332 22.9181C24.6927 22.9117 24.0528 22.9142 23.4123 22.9179C23.0059 22.9166 22.5995 22.9148 22.1931 22.9124C22.0015 22.9133 21.8098 22.9142 21.6124 22.9152C20.2943 22.8932 20.2943 22.8932 19.6693 22.4632C19.2898 21.8536 19.3128 21.4346 19.4131 20.7324C20.0613 19.6902 21.0941 19.8696 22.1931 19.8783Z" fill="white"/>
<path d="M80.291 73.9536C80.6234 73.9482 80.6234 73.9482 80.9625 73.9426C82.7662 73.9528 82.7662 73.9528 83.3582 74.5146C83.7626 75.135 83.8349 75.4186 83.6836 76.1447C83.3707 76.6247 83.2292 76.8175 82.7412 77.087C81.9229 77.2294 81.1197 77.2185 80.291 77.2048C79.9587 77.2103 79.9587 77.2103 79.6196 77.2159C77.8159 77.2056 77.8159 77.2056 77.2239 76.6438C76.8194 76.0235 76.7472 75.7399 76.8985 75.0138C77.7254 73.7454 78.8903 73.9306 80.291 73.9536Z" fill="white"/>
<path d="M67.4746 73.9536C67.807 73.9482 67.807 73.9482 68.146 73.9426C69.9498 73.9528 69.9498 73.9528 70.5418 74.5146C70.9462 75.135 71.0184 75.4186 70.8672 76.1447C70.5542 76.6247 70.4128 76.8175 69.9248 77.087C69.1064 77.2294 68.3033 77.2185 67.4746 77.2048C67.1422 77.2103 67.1422 77.2103 66.8031 77.2159C64.9994 77.2056 64.9994 77.2056 64.4074 76.6438C64.003 76.0235 63.9307 75.7399 64.082 75.0138C64.9089 73.7454 66.0739 73.9306 67.4746 73.9536Z" fill="white"/>
<path d="M54.6582 73.9536C54.9906 73.9482 54.9906 73.9482 55.3296 73.9426C57.1334 73.9528 57.1334 73.9528 57.7254 74.5146C58.1298 75.135 58.202 75.4186 58.0508 76.1447C57.7378 76.6247 57.5964 76.8175 57.1084 77.087C56.29 77.2294 55.4869 77.2185 54.6582 77.2048C54.3258 77.2103 54.3258 77.2103 53.9867 77.2159C52.183 77.2056 52.183 77.2056 51.591 76.6438C51.1866 76.0235 51.1143 75.7399 51.2656 75.0138C52.0925 73.7454 53.2575 73.9306 54.6582 73.9536Z" fill="white"/>
<path d="M41.8418 73.9536C42.1741 73.9482 42.1741 73.9482 42.5132 73.9426C44.317 73.9528 44.317 73.9528 44.9089 74.5146C45.3134 75.135 45.3856 75.4186 45.2344 76.1447C44.9214 76.6247 44.78 76.8175 44.292 77.087C43.4736 77.2294 42.6704 77.2185 41.8418 77.2048C41.5094 77.2103 41.5094 77.2103 41.1703 77.2159C39.3666 77.2056 39.3666 77.2056 38.7746 76.6438C38.3702 76.0235 38.2979 75.7399 38.4492 75.0138C39.2761 73.7454 40.4411 73.9306 41.8418 73.9536Z" fill="white"/>
<path d="M29.0254 73.9536C29.3577 73.9482 29.3577 73.9482 29.6968 73.9426C31.5006 73.9528 31.5006 73.9528 32.0925 74.5146C32.497 75.135 32.5692 75.4186 32.418 76.1447C32.105 76.6247 31.9636 76.8175 31.4756 77.087C30.6572 77.2294 29.854 77.2185 29.0254 77.2048C28.693 77.2103 28.693 77.2103 28.3539 77.2159C26.5502 77.2056 26.5502 77.2056 25.9582 76.6438C25.5538 76.0235 25.4815 75.7399 25.6328 75.0138C26.4597 73.7454 27.6247 73.9306 29.0254 73.9536Z" fill="white"/>
<path d="M16.209 73.9536C16.5413 73.9482 16.5413 73.9482 16.8804 73.9426C18.6841 73.9528 18.6841 73.9528 19.2761 74.5146C19.6806 75.135 19.7528 75.4186 19.6015 76.1447C19.2886 76.6247 19.1472 76.8175 18.6592 77.087C17.8408 77.2294 17.0376 77.2185 16.209 77.2048C15.8766 77.2103 15.8766 77.2103 15.5375 77.2159C13.7338 77.2056 13.7338 77.2056 13.1418 76.6438C12.7374 76.0235 12.6651 75.7399 12.8164 75.0138C13.6433 73.7454 14.8083 73.9306 16.209 73.9536Z" fill="white"/>
<path d="M15.7378 19.8843C15.9496 19.8824 16.1615 19.8804 16.3798 19.8784C17.0742 19.9977 17.2969 20.1763 17.7168 20.7325C17.8368 21.4376 17.7848 21.7522 17.4105 22.364C16.9629 22.8057 16.9629 22.8057 16.3798 22.9242C16.1679 22.9201 15.9561 22.916 15.7378 22.9117C15.5259 22.912 15.3141 22.9122 15.0958 22.9124C14.4028 22.7856 14.1754 22.6117 13.7588 22.0518C13.6546 21.3227 13.6186 20.9212 14.0651 20.3202C14.6493 19.8743 15.009 19.8776 15.7378 19.8843Z" fill="white"/>
</g>
<defs>
<clipPath id="clip0_1216_655">
<rect width="96.5" height="96.5" fill="white"/>
</clipPath>
</defs>
</svg>
